<?xml version="1.0" encoding="UTF-8" standalone="no"?>
<!-- Created with Inkscape (http://www.inkscape.org/) -->

<svg
   xmlns:dc="http://purl.org/dc/elements/1.1/"
   xmlns:cc="http://creativecommons.org/ns#"
   xmlns:rdf="http://www.w3.org/1999/02/22-rdf-syntax-ns#"
   xmlns:svg="http://www.w3.org/2000/svg"
   xmlns="http://www.w3.org/2000/svg"
   xmlns:xlink="http://www.w3.org/1999/xlink"
   xmlns:sodipodi="http://sodipodi.sourceforge.net/DTD/sodipodi-0.dtd"
   xmlns:inkscape="http://www.inkscape.org/namespaces/inkscape"
   width="232.19322mm"
   height="183.73625mm"
   viewBox="0 0 232.19323 183.73625"
   version="1.1"
   id="svg6897"
   inkscape:version="0.92.4 (5da689c313, 2019-01-14)"
   sodipodi:docname="oive_1.svg">
  <defs
     id="defs6891">
    <linearGradient
       id="linearGradient7549"
       inkscape:collect="always">
      <stop
         id="stop7543"
         offset="0"
         style="stop-color:#ff0000;stop-opacity:1;" />
      <stop
         style="stop-color:#000080;stop-opacity:1"
         offset="1"
         id="stop7545" />
    </linearGradient>
    <inkscape:path-effect
       effect="skeletal"
       id="path-effect6929"
       is_visible="true"
       pattern="M 0,5 C 0,2.24 2.24,0 5,0 7.76,0 10,2.24 10,5 10,7.76 7.76,10 5,10 2.24,10 0,7.76 0,5 Z"
       copytype="single_stretched"
       prop_scale="0.26458333"
       scale_y_rel="false"
       spacing="0"
       normal_offset="0"
       tang_offset="0"
       prop_units="false"
       vertical_pattern="false"
       fuse_tolerance="0" />
    <inkscape:path-effect
       effect="bspline"
       id="path-effect6927"
       is_visible="true"
       weight="33.333333"
       steps="2"
       helper_size="0"
       apply_no_weight="true"
       apply_with_weight="true"
       only_selected="false" />
    <inkscape:path-effect
       effect="skeletal"
       id="path-effect6923"
       is_visible="true"
       pattern="M 0,5 C 0,2.24 2.24,0 5,0 7.76,0 10,2.24 10,5 10,7.76 7.76,10 5,10 2.24,10 0,7.76 0,5 Z"
       copytype="single_stretched"
       prop_scale="0.26458333"
       scale_y_rel="false"
       spacing="0"
       normal_offset="0"
       tang_offset="0"
       prop_units="false"
       vertical_pattern="false"
       fuse_tolerance="0" />
    <inkscape:path-effect
       effect="bspline"
       id="path-effect6921"
       is_visible="true"
       weight="33.333333"
       steps="2"
       helper_size="0"
       apply_no_weight="true"
       apply_with_weight="true"
       only_selected="false" />
    <inkscape:path-effect
       effect="skeletal"
       id="path-effect6917"
       is_visible="true"
       pattern="M 0,5 C 0,2.24 2.24,0 5,0 7.76,0 10,2.24 10,5 10,7.76 7.76,10 5,10 2.24,10 0,7.76 0,5 Z"
       copytype="single_stretched"
       prop_scale="0.26458333"
       scale_y_rel="false"
       spacing="0"
       normal_offset="0"
       tang_offset="0"
       prop_units="false"
       vertical_pattern="false"
       fuse_tolerance="0" />
    <inkscape:path-effect
       effect="bspline"
       id="path-effect6915"
       is_visible="true"
       weight="33.333333"
       steps="2"
       helper_size="0"
       apply_no_weight="true"
       apply_with_weight="true"
       only_selected="false" />
    <inkscape:path-effect
       effect="skeletal"
       id="path-effect6911"
       is_visible="true"
       pattern="M 0,5 C 0,2.24 2.24,0 5,0 7.76,0 10,2.24 10,5 10,7.76 7.76,10 5,10 2.24,10 0,7.76 0,5 Z"
       copytype="single_stretched"
       prop_scale="0.26458333"
       scale_y_rel="false"
       spacing="0"
       normal_offset="0"
       tang_offset="0"
       prop_units="false"
       vertical_pattern="false"
       fuse_tolerance="0" />
    <inkscape:path-effect
       effect="bspline"
       id="path-effect6909"
       is_visible="true"
       weight="33.333333"
       steps="2"
       helper_size="0"
       apply_no_weight="true"
       apply_with_weight="true"
       only_selected="false" />
    <linearGradient
       inkscape:collect="always"
       xlink:href="#linearGradient7549"
       id="linearGradient7541"
       x1="133.67694"
       y1="214.75829"
       x2="133.40132"
       y2="235.38766"
       gradientUnits="userSpaceOnUse"
       gradientTransform="matrix(0.79212503,0,0,0.7921251,13.001077,36.365242)" />
  </defs>
  <sodipodi:namedview
     id="base"
     pagecolor="#ffffff"
     bordercolor="#666666"
     borderopacity="1.0"
     inkscape:pageopacity="0.0"
     inkscape:pageshadow="2"
     inkscape:zoom="0.175"
     inkscape:cx="459.93526"
     inkscape:cy="-293.54387"
     inkscape:document-units="mm"
     inkscape:current-layer="layer1"
     showgrid="false"
     inkscape:window-width="1280"
     inkscape:window-height="961"
     inkscape:window-x="-8"
     inkscape:window-y="-8"
     inkscape:window-maximized="1"
     inkscape:snap-text-baseline="false" />
  <metadata
     id="metadata6894">
    <rdf:RDF>
      <cc:Work
         rdf:about="">
        <dc:format>image/svg+xml</dc:format>
        <dc:type
           rdf:resource="http://purl.org/dc/dcmitype/StillImage" />
        <dc:title></dc:title>
      </cc:Work>
    </rdf:RDF>
  </metadata>
  <g
     inkscape:label="Layer 1"
     inkscape:groupmode="layer"
     id="layer1"
     transform="translate(-7.6659603,207.11973)">
    <text
       xml:space="preserve"
       style="font-style:normal;font-variant:normal;font-weight:normal;font-stretch:extra-condensed;font-size:42.38637924px;line-height:1.25;font-family:Algerian;-inkscape-font-specification:'Algerian, Extra-Condensed';font-variant-ligatures:normal;font-variant-caps:normal;font-variant-numeric:normal;font-feature-settings:normal;text-align:start;letter-spacing:0px;word-spacing:0px;writing-mode:lr-tb;text-anchor:start;fill:#000000;fill-opacity:1;stroke:none;stroke-width:0.2207678"
       x="52.380569"
       y="-38.672348"
       id="text7483"
       transform="scale(1.4036199,0.71244358)"><tspan
         sodipodi:role="line"
         id="tspan7481"
         x="52.380569"
         y="-38.672348"
         style="font-style:normal;font-variant:normal;font-weight:normal;font-stretch:extra-condensed;font-size:42.38637924px;font-family:Algerian;-inkscape-font-specification:'Algerian, Extra-Condensed';font-variant-ligatures:normal;font-variant-caps:normal;font-variant-numeric:normal;font-feature-settings:normal;text-align:start;writing-mode:lr-tb;text-anchor:start;fill:#000000;fill-opacity:1;stroke-width:0.2207678">oive</tspan></text>
    <path
       d="m 103.13591,-107.09124 c 1.51427,0.21083 3.00503,0.49966 4.48898,0.8327 1.14376,0.24284 2.13619,0.73688 3.04313,1.36659 0.65391,0.49563 1.31319,0.98472 1.97181,1.47589 0.60822,0.46894 1.24555,0.90771 1.87196,1.35857 0.56395,0.38688 1.09538,0.8047 1.65723,1.19405 0.47639,0.37578 0.89281,0.80545 1.37217,1.177438 0.4642,0.40428 0.99332,0.74141 1.47902,1.12585 0.57705,0.38032 1.06092,0.85381 1.55764,1.30765 0.57765,0.5117 1.22061,0.9504 1.8482,1.41381 0.67574,0.46092 1.20089,1.04876 1.80095,1.57415 0.48024,0.49892 1.02437,0.94371 1.53556,1.41757 0.64531,0.44006 1.02214,1.07344 1.40948,1.68259 0.41604,0.73673 0.84687,1.46484 1.3033,2.18335 0.31678,0.52459 0.82274,0.93316 1.26829,1.374454 0.55712,0.520898 0.84799,1.188977 1.11735,1.845556 0.30805,0.648653 0.53135,1.317195 0.65285,2.009299 0.0824,0.720523 0.0748,1.44602 0.0774,2.169239 1e-4,0.740662 -0.001,1.481347 -0.007,2.221999 -0.0733,0.883355 -0.19142,1.762824 -0.25329,2.64708 -0.0692,0.824055 -0.0315,1.651246 -0.0916,2.47518 -0.0465,0.729822 -0.36242,1.408126 -0.70992,2.065342 -0.2904,0.589035 -0.71613,1.116305 -1.17419,1.616621 -0.48341,0.494869 -1.03099,0.941696 -1.57785,1.384265 -0.61216,0.562247 -1.31515,1.039958 -2.00172,1.531524 -0.55218,0.384766 -1.10658,0.77411 -1.59832,1.216337 -0.46314,0.4428 -1.00058,0.81842 -1.56533,1.160208 -2.60257,1.372654 -8.71161,4.281025 -0.88003,0.457239 0.10408,-0.05073 -0.20222,0.109618 -0.30137,0.16719 -0.27494,0.159322 -0.2899,0.176007 -0.54823,0.351088 -0.51246,0.314537 -1.0205,0.632178 -1.54008,0.938075 -14.19547,7.01569 2.57353,-1.293411 -0.75252,0.38021 -1.41767,0.71338 -2.86958,1.378134 -4.25732,2.133732 -1.20567,0.656491 2.46946,-1.230612 3.71074,-1.836112 0.096,-0.04689 -0.18272,0.106428 -0.27415,0.159696 -0.59928,0.396707 -1.19947,0.791764 -1.79253,1.195371 -1.90825,1.29536 -4.1334,2.183381 -6.3129,3.085092 -0.66063,0.27868 -1.31954,0.511885 -2.0463,0.622923 -0.63438,0.07627 -1.27645,0.07439 -1.91559,0.07572 -0.61189,-0.07121 -1.19369,-0.262634 -1.75062,-0.486725 -0.10483,-0.04612 -0.21303,-0.08662 -0.31437,-0.138146 -0.8435,-0.42814 0.19352,0.05393 -0.60657,-0.337528 -0.27367,-0.133832 -0.56673,-0.219755 -0.84375,-0.348446 -0.44496,-0.347611 -1.02814,-0.413272 -1.55843,-0.600273 -0.45926,-0.179935 -0.648404,-0.44259 -0.761814,-0.849004 0,0 4.124474,-1.872366 4.124474,-1.872366 v 0 c -0.0112,0.289213 0.20968,0.382114 0.50697,0.481244 0.56252,0.159134 1.09939,0.345232 1.58642,0.642842 0.59426,0.251694 1.15325,0.550459 1.74698,0.800106 0.5289,0.177679 1.05618,0.367861 1.63661,0.351892 0.62114,-0.0089 1.24737,-0.02003 1.85536,-0.142076 0.68871,-0.161004 1.3254,-0.428888 1.97288,-0.6833 0.24625,-0.0952 0.51597,-0.198006 0.75897,-0.299062 0.13503,-0.05624 0.53135,-0.239037 0.40243,-0.17319 -6.46394,3.305287 -4.08193,2.15624 -2.78799,1.347782 0.60181,-0.386319 1.17936,-0.803144 1.77353,-1.196736 1.54689,-1.071765 0.0487,-0.05206 4.50908,-2.317961 1.22901,-0.624352 -2.457,1.250412 -3.69773,1.857397 -0.0854,0.04183 0.14388,-0.117333 0.22859,-0.160256 1.40415,-0.711091 2.80326,-1.430777 4.23486,-2.100165 1.25892,-0.588639 -2.47775,1.238569 -3.71664,1.857848 0.54697,-0.276578 1.02683,-0.615063 1.55859,-0.90694 0.36734,-0.234513 0.18737,-0.108518 0.53869,-0.379274 1.38996,-0.926409 3.03751,-1.525151 4.5476,-2.300284 1.21514,-0.623747 -2.44548,1.22535 -3.67145,1.833239 -0.10291,0.05095 0.20115,-0.108188 0.3017,-0.162315 0.59241,-0.289642 1.11424,-0.657744 1.60968,-1.058898 0.47404,-0.476885 1.01825,-0.889451 1.58658,-1.281976 0.70087,-0.462325 1.39346,-0.947552 2.01205,-1.490219 0.51775,-0.45998 1.09013,-0.873625 1.59415,-1.34482 0.46679,-0.468036 0.90798,-0.965921 1.22903,-1.51813 0.31328,-0.633751 0.72238,-1.248364 0.78436,-1.95153 0.10885,-0.818397 0.0297,-1.646216 0.10014,-2.467817 0.0657,-0.876651 0.16435,-1.750353 0.26396,-2.624572 -0.004,-0.739728 8.5e-4,-1.479433 0.004,-2.219161 5.6e-4,-0.705356 0.007,-1.412363 -0.0625,-2.115771 -0.0932,-0.671667 -0.28817,-1.322313 -0.5896,-1.948756 -0.24196,-0.613843 -0.53151,-1.220884 -1.05498,-1.700872 -0.46655,-0.463634 -0.97403,-0.908524 -1.30282,-1.459084 -0.4453,-0.721632 -0.87036,-1.449865 -1.2824,-2.186285 -0.38523,-0.57861 -0.77509,-1.15458 -1.38086,-1.58625 -0.5103,-0.46992 -1.03769,-0.925 -1.51671,-1.41961 -0.57867,-0.52694 -1.12338,-1.08217 -1.78523,-1.53697 -0.63959,-0.46819 -1.27504,-0.9335 -1.86385,-1.44996 -0.50495,-0.4371 -0.98993,-0.89501 -1.55317,-1.27846 -0.49601,-0.37805 -1.02244,-0.72321 -1.49043,-1.12813 -0.4561,-0.37957 -0.87876,-0.78857 -1.34983,-1.15529 -0.5606,-0.39152 -1.08673,-0.81738 -1.65316,-1.2031 -0.6306,-0.449948 -1.25698,-0.903898 -1.87577,-1.365568 -0.65358,-0.48664 -1.29146,-0.98766 -1.95193,-1.4673 -0.86472,-0.58473 -1.81494,-1.02674 -2.89181,-1.25596 -1.48599,-0.34338 -2.98949,-0.61085 -4.522144,-0.74764 0,0 3.803714,-2.31377 3.803714,-2.31377 z"
       id="path6433"
       style="opacity:1;fill:#070707;fill-opacity:1;stroke:#000000;stroke-width:0.11223189;stroke-linecap:round;stroke-linejoin:round;stroke-miterlimit:4;stroke-dasharray:none;stroke-dashoffset:0;stroke-opacity:1"
       inkscape:connector-curvature="0" />
    <path
       d="m 110.97932,-115.66775 c 0.78795,1.14397 1.47677,2.33594 2.13048,3.53996 0.56949,1.03567 1.12596,2.07177 1.78752,3.0667 0.50458,0.74132 1.03835,1.47995 1.65495,2.15738 0.43354,0.57072 0.89216,1.12923 1.37746,1.66842 0.4623,0.47609 0.96781,0.91899 1.38718,1.42434 0.52408,0.51713 0.96792,1.08501 1.48705,1.60552 0.45958,0.49069 0.91095,0.99748 1.44327,1.4324 0.46743,0.38378 0.92506,0.778918 1.35833,1.192008 0.55533,0.39886 0.9407,0.9297 1.32151,1.45027 0.52048,0.67054 1.03745,1.34167 1.49509,2.04569 0.46291,0.83001 0.98299,1.63259 1.53003,2.4234 0.62461,0.86799 1.12582,1.78933 1.56044,2.73705 0.58745,1.13416 1.22591,2.24782 1.87125,3.358239 0.61031,1.012036 1.10546,2.068006 1.60127,3.123526 0.40899,0.881395 0.89746,1.741152 1.49621,2.539287 0.50093,0.754366 0.96724,1.522005 1.36514,2.320482 0.38737,0.664017 0.78283,1.327342 1.08994,2.022463 0.24047,0.714227 0.3575,1.45883 0.47605,2.194727 0.1394,0.801119 0.13128,1.604481 0.0532,2.408891 -0.16822,1.081824 -0.56036,2.126446 -0.95061,3.16133 -0.3677,1.022436 -0.93659,1.970141 -1.58445,2.878864 -0.41076,0.51338 -0.86984,0.997606 -1.38679,1.434341 -0.48232,0.438519 -1.05357,0.791665 -1.5763,1.193324 -0.55459,0.420172 -1.08826,0.857679 -1.61973,1.299025 -0.46513,0.378812 -0.93007,0.758405 -1.37033,1.158799 -0.49448,0.500019 -1.07662,0.920048 -1.65582,1.343609 -0.56586,0.413238 -1.21832,0.728952 -1.85709,1.050721 -1.88055,1.202073 -3.9788,2.087287 -6.02321,3.085378 -0.71867,0.4346 -1.5806,0.519005 -2.40583,0.69785 -0.76297,0.179187 -1.54931,0.225808 -2.33535,0.256702 -0.69288,0.02157 -1.38638,0.02003 -2.07961,0.01926 -1.14817,-0.163636 -0.7956,-1.096219 -0.55996,-1.774633 0,0 4.14499,-1.676889 4.14499,-1.676889 v 0 c -0.0387,0.09388 -0.48219,0.850193 -0.25574,1.038361 0.0745,0.06186 0.37653,0.05788 0.43787,0.06075 0.68521,-1.32e-4 1.37092,1.11e-4 2.05531,-0.0328 0.77074,-0.04589 1.53411,-0.136638 2.2816,-0.31009 0.82374,-0.158947 1.60874,-0.381982 2.33302,-0.76656 -1.18467,0.593778 -2.36741,1.190385 -3.55402,1.781291 -0.12839,0.06394 0.25126,-0.135703 0.37913,-0.200296 0.23432,-0.118269 0.49564,-0.197633 0.71797,-0.331927 0.19342,-0.116772 0.3143,-0.309506 0.52646,-0.408494 0.62919,-0.331761 1.28166,-0.63231 1.89144,-0.989087 0.5657,-0.423683 1.1771,-0.80485 1.6646,-1.299058 0.44019,-0.412577 0.89783,-0.79916 1.35691,-1.195195 0.57325,-0.400702 1.04423,-0.901635 1.62686,-1.294512 0.34337,-0.277722 0.68591,-0.57717 1.07058,-0.813521 0.0907,-0.05569 0.19755,-0.09124 0.28365,-0.152014 0.0839,-0.05921 0.1479,-0.136451 0.22201,-0.204732 0.49273,-0.448556 1.01837,-0.868089 1.44918,-1.367955 0.68156,-0.876969 1.29112,-1.793782 1.67449,-2.801602 0.37348,-1.009283 0.75212,-2.02341 0.96241,-3.068814 0.0863,-0.776609 0.10085,-1.550179 -0.0193,-2.326248 -0.10034,-0.709472 -0.2343,-1.417921 -0.44081,-2.110246 -0.28546,-0.694593 -0.67504,-1.354703 -1.04653,-2.017412 -0.39541,-0.777202 -0.85833,-1.522124 -1.34483,-2.260113 -0.59469,-0.829447 -1.08879,-1.711933 -1.50901,-2.616341 -0.48204,-1.050511 -0.9877,-2.090678 -1.5831,-3.098695 -0.62555,-1.129754 -1.28187,-2.247072 -1.8877,-3.384856 -0.43067,-0.92763 -0.9319,-1.82437 -1.55425,-2.67017 -0.53836,-0.79826 -1.05108,-1.60817 -1.52799,-2.43495 -0.45114,-0.69963 -0.98772,-1.35132 -1.50552,-2.01517 -0.37053,-0.50298 -0.75205,-0.99789 -1.28762,-1.38568 -0.43296,-0.40399 -0.87992,-0.79835 -1.34436,-1.17531 -0.52097,-0.46006 -0.98829,-0.96408 -1.44674,-1.470248 -0.52265,-0.53117 -0.99717,-1.09487 -1.5178,-1.62745 -0.42212,-0.4985 -0.93291,-0.93547 -1.38084,-1.41669 -0.47184,-0.54766 -0.94285,-1.09659 -1.36874,-1.6718 -0.60743,-0.70576 -1.15204,-1.45487 -1.66478,-2.21342 -0.66479,-1.00724 -1.19788,-2.06478 -1.76201,-3.11538 -0.64481,-1.17903 -1.30024,-2.36546 -2.16821,-3.43777 0,0 4.00988,-2.03459 4.00988,-2.03459 z"
       id="path6435"
       style="opacity:1;fill:#070707;fill-opacity:1;stroke:#000000;stroke-width:0.11223189;stroke-linecap:round;stroke-linejoin:round;stroke-miterlimit:4;stroke-dasharray:none;stroke-dashoffset:0;stroke-opacity:1"
       inkscape:connector-curvature="0" />
    <path
       d="m 129.076,-127.8802 c -0.0559,1.71336 -0.0839,3.42877 -0.0256,5.14219 0.0631,1.84315 0.19695,3.67625 0.47607,5.50424 0.2404,1.56901 0.76429,3.08945 1.25055,4.61155 0.48629,1.34096 1.00151,2.67031 1.42218,4.02781 0.31822,1.07644 0.61425,2.15856 0.7716,3.2617 0.11931,1.15289 0.14657,2.30696 0.33465,3.45455 0.20156,1.03909 0.39026,2.080488 0.54679,3.125378 0.13786,1.05443 0.1924,2.11572 0.23269,3.17579 0.0702,0.76855 0.19356,1.53221 0.26824,2.30044 0.10014,0.64708 0.47021,1.23431 0.73222,1.84288 0.28537,0.82767 0.61619,1.64324 0.88317,2.47542 0.16087,0.66673 0.37201,1.324523 0.61371,1.972759 0.25287,0.561212 0.48172,1.126727 0.8012,1.663242 0.29446,0.553618 0.66516,1.074746 0.90108,1.650024 0.30068,0.578271 0.40385,1.190022 0.46183,1.815278 0.0398,0.720422 0.099,1.443806 0.046,2.164537 -0.34618,2.271231 0.0448,0.994173 -4.36602,3.029271 -0.0688,-0.04887 -0.13767,-0.09806 -0.20665,-0.147126 0,0 3.92279,-2.195069 3.92279,-2.195069 v 0 c 0.0361,0.0022 0.0724,0.0033 0.10867,0.0055 -1.32274,0.65124 -2.66086,1.279907 -3.96818,1.953742 -0.0356,0.01871 0.0828,0.04689 0.1193,0.03015 0.0412,-0.01893 0.0424,-0.07198 0.0559,-0.1104 0.0895,-0.25647 0.10301,-0.527325 0.17014,-0.787768 0.11796,-0.695208 0.0203,-1.406552 0.005,-2.106075 -0.0547,-0.590938 -0.13864,-1.173314 -0.43135,-1.71815 -0.20832,-0.561664 -0.56951,-1.067384 -0.84884,-1.603822 -0.34164,-0.553959 -0.59156,-1.133826 -0.85062,-1.718755 -0.24006,-0.65681 -0.45274,-1.321774 -0.60311,-1.998691 -0.24758,-0.822899 -0.5799,-1.624237 -0.86753,-2.437197 -0.2877,-0.64023 -0.67188,-1.26091 -0.8021,-1.94083 -0.0582,-0.77789 -0.16512,-1.55117 -0.26438,-2.32579 -0.0116,-1.05135 -0.0424,-2.1042 -0.18504,-3.14951 -0.15545,-1.04302 -0.36326,-2.07964 -0.54206,-3.119818 -0.20143,-1.14852 -0.23737,-2.30548 -0.34093,-3.46206 -0.15448,-1.08763 -0.43692,-2.15562 -0.72516,-3.22211 -0.4133,-1.35973 -0.91067,-2.69317 -1.40336,-4.03302 -0.48469,-1.54178 -1.01642,-3.0796 -1.26372,-4.6666 -0.27143,-1.84354 -0.41521,-3.69086 -0.46974,-5.54906 -0.0702,-1.69987 -0.0289,-3.40095 -0.10075,-5.10087 0,0 4.14088,-1.8135 4.14088,-1.8135 z"
       id="path6437"
       style="opacity:1;fill:#070707;fill-opacity:1;stroke:#3f5116;stroke-width:0.11223189;stroke-linecap:round;stroke-linejoin:round;stroke-miterlimit:4;stroke-dasharray:none;stroke-dashoffset:0;stroke-opacity:0.88235294"
       inkscape:connector-curvature="0" />
    <path
       d="m 161.32302,-117.03758 c -0.62088,1.09227 -1.20329,2.19926 -1.78903,3.30554 -0.5977,1.14023 -1.2275,2.26935 -1.7754,3.42812 -0.45375,1.02332 -0.92071,2.0423 -1.43259,3.04523 -0.48191,1.0292 -0.9439,2.06551 -1.39042,3.10645 -0.49349,1.0516 -0.86064,2.14088 -1.25613,3.22115 -0.35514,1.107818 -0.76635,2.196808 -1.30086,3.250218 -0.36498,0.79479 -0.82633,1.55331 -1.18999,2.34802 -0.336,0.77253 -0.8636,1.46275 -1.25989,2.21145 -0.5073,1.07802 -1.06075,2.139 -1.59509,3.207 -0.40195,0.83378 -0.91645,1.62094 -1.36858,2.434459 -0.42461,0.647542 -0.84159,1.300719 -1.28585,1.938917 -0.45745,0.618553 -0.79633,1.289625 -1.01031,1.997623 -0.21864,0.816405 -0.41384,1.638061 -0.59497,2.461312 -0.23404,0.827147 -0.39441,1.664178 -0.4828,2.511532 -0.0956,0.732133 -0.22839,1.458147 -0.4738,2.164637 -0.24044,0.528382 -0.3958,1.073591 -0.47549,1.635573 -0.0783,0.522835 -0.25019,1.027411 -0.43166,1.528959 -0.20702,0.535459 -0.40978,1.072525 -0.63981,1.601258 -0.30931,0.586327 -0.448,1.216877 -0.74524,1.807507 -0.3344,0.717958 -0.84251,1.356178 -1.30034,2.016828 -0.41186,0.691126 -0.87847,1.356355 -1.30323,2.041371 -0.36638,0.597015 -0.76509,1.18059 -1.03951,1.814519 -0.25189,0.515835 -0.38594,1.057313 -0.51841,1.601675 -0.17885,0.469192 -0.24517,0.960396 -0.41749,1.430182 -0.21191,0.480814 -0.52188,0.917097 -0.7407,1.395622 -0.92368,2.062767 -1.38606,1.472874 -4.83916,3.108381 -0.0932,-0.124465 -0.18658,-0.249051 -0.27975,-0.373562 0,0 4.02608,-2.028603 4.02608,-2.028603 v 0 c 0.004,5.82e-4 0.007,8.79e-4 0.0116,8.79e-4 -1.28792,0.652815 -2.57276,1.310119 -3.86377,1.958443 -0.0696,0.035 0.14424,-0.06714 0.19878,-0.117896 0.2469,-0.230188 0.36419,-0.594295 0.51362,-0.869585 0.11659,-0.233677 0.19181,-0.479549 0.32395,-0.707283 0.0435,-0.07518 0.0961,-0.146202 0.14406,-0.219314 0.0532,-0.06912 0.11523,-0.133644 0.1599,-0.207175 0.0493,-0.081 0.0802,-0.169248 0.12025,-0.253861 0.23992,-0.446091 0.24894,-0.928534 0.43375,-1.391518 0.20845,-0.53088 0.20801,-1.118847 0.51648,-1.627792 0.23396,-0.666231 0.62573,-1.269419 1.02054,-1.874324 0.40721,-0.700194 0.90523,-1.355078 1.30708,-2.057022 0.40991,-0.673846 0.97279,-1.274437 1.30452,-1.984757 0.0795,-0.138895 0.26589,-0.452859 0.32745,-0.605346 0.15759,-0.390191 0.17131,-0.820169 0.40981,-1.187106 0.28402,-0.498357 0.40316,-1.04252 0.6655,-1.548758 0.13283,-0.49653 0.36525,-0.966207 0.46371,-1.471774 0.0601,-0.588484 0.17441,-1.170354 0.4401,-1.719525 0.29783,-0.670435 0.41956,-1.375956 0.53466,-2.084218 0.0856,-0.857788 0.21392,-1.712317 0.46671,-2.547245 0.17498,-0.827676 0.37964,-1.649914 0.58093,-2.472956 0.1717,-0.75364 0.49617,-1.45806 0.94332,-2.123894 0.4867,-0.605852 0.82238,-1.287138 1.30454,-1.895863 0.47425,-0.809163 0.96298,-1.610909 1.41957,-2.42775 0.5048,-1.07428 1.11149,-2.11331 1.57669,-3.20313 0.35339,-0.76336 0.84489,-1.4513 1.25584,-2.19089 0.33971,-0.81366 0.81468,-1.57403 1.18942,-2.37621 0.56411,-1.03696 1.01872,-2.10167 1.34417,-3.21428 0.39014,-1.085238 0.74554,-2.181818 1.23978,-3.236758 0.44832,-1.04522 0.9157,-2.08333 1.37103,-3.1264 0.51984,-1.00081 1.00539,-2.01522 1.46061,-3.03885 0.52384,-1.17104 1.17132,-2.29741 1.75642,-3.44646 0.60158,-1.08484 1.16495,-2.18558 1.74277,-3.27963 0,0 4.22634,-1.66346 4.22634,-1.66346 z"
       id="path6439"
       style="opacity:1;fill:#070707;fill-opacity:1;stroke:#000000;stroke-width:0.11223189;stroke-linecap:round;stroke-linejoin:round;stroke-miterlimit:4;stroke-dasharray:none;stroke-dashoffset:0;stroke-opacity:1"
       inkscape:connector-curvature="0" />
    <path
       d="m 180.14332,-111.68493 c -0.83178,0.59493 -1.64525,1.20861 -2.46096,1.81975 -2.07407,1.40339 -4.41534,2.51275 -6.80988,3.46126 -1.35262,0.45169 -2.62437,1.05484 -3.94464,1.56837 -1.52876,0.65233 -3.15813,1.07772 -4.78069,1.51555 -1.67448,0.43477 -3.30506,0.98165 -4.95033,1.48986 -1.48065,0.45704 -2.97127,0.87226 -4.40437,1.43367 -1.12729,0.528998 -2.34919,0.897528 -3.46424,1.442478 -1.47962,0.64115 -3.76515,1.78646 2.8575,-1.449788 0.0962,-0.047 -0.19102,0.0967 -0.28297,0.14976 -0.17923,0.10367 -0.36355,0.23313 -0.53289,0.348028 -0.57595,0.31645 -0.99292,0.76193 -1.39412,1.22691 -0.48576,0.50445 -0.89918,1.03672 -1.16239,1.65227 -0.35056,0.83869 -0.45927,1.72219 -0.53296,2.60471 -0.0787,0.89985 -0.0211,1.80351 -0.0821,2.70336 -0.0487,0.69384 -0.28176,1.36016 -0.41794,2.04196 -0.041,0.69918 -0.25434,1.35922 -0.47532,2.027414 -0.27223,0.647257 -0.45863,1.307323 -0.56092,1.989061 -0.0671,0.716856 -0.21723,1.424579 -0.30455,2.139753 -0.0946,0.971786 -0.10198,1.948195 -0.1044,2.92281 -0.059,0.875341 0.14501,1.728297 0.3584,2.577325 0.18483,0.598488 0.4849,1.166855 0.80573,1.719515 0.21295,0.459495 0.39265,0.924318 0.64448,1.369836 0.23384,0.446355 0.4322,0.903727 0.66674,1.349542 0.18331,0.478668 0.49227,0.903495 0.8029,1.325934 0.37062,0.458824 0.68816,0.941443 0.90331,1.468845 0.22465,0.511927 0.48703,1.011628 0.76738,1.502755 0.30297,0.479295 0.68545,0.920169 1.11344,1.321861 0.40324,0.438288 0.84828,0.844327 1.2765,1.264884 0.50914,0.467057 0.9855,0.958337 1.50876,1.413596 0.54005,0.474882 1.09588,0.929998 1.69754,1.346251 0.59604,0.393009 1.14978,0.829579 1.73749,1.230303 0.57748,0.400449 1.1296,0.822679 1.71825,1.210989 0.61867,0.33821 1.21253,0.706963 1.85681,1.00913 0.53004,0.333555 1.129,0.58986 1.64241,0.942268 0.41351,0.39028 0.91341,0.5846 1.50519,0.678556 0.60065,0.0678 1.20827,0.06097 1.81283,0.06053 0.6287,-0.0022 1.25743,-0.0055 1.88614,-0.0077 0.38843,-0.04238 0.83251,0.08496 1.20369,-0.05679 0.0719,-0.02752 0.26142,-0.150516 0.19277,-0.117521 -1.28112,0.616858 -2.55405,1.246229 -3.83106,1.869361 0.19639,-0.145828 0.12065,-0.05139 0.19866,-0.2986 0,0 4.18103,-1.775646 4.18103,-1.775646 v 0 c -0.009,0.380044 0.005,0.189401 -0.0453,0.571855 -3.73651,1.892065 -2.99792,2.193142 -5.66717,2.161665 -0.62951,0.0022 -1.25902,0.0055 -1.88853,0.0033 -0.62834,-0.0055 -1.26322,-0.0089 -1.87804,-0.135505 -0.6194,-0.158198 -1.14773,-0.424243 -1.61059,-0.816207 -0.5173,-0.319038 -1.06741,-0.603705 -1.60009,-0.902538 -0.64679,-0.329262 -1.27084,-0.689606 -1.88839,-1.057675 -0.59043,-0.392691 -1.14543,-0.821073 -1.73237,-1.217614 -0.5721,-0.415616 -1.13938,-0.834852 -1.72853,-1.233121 -0.60993,-0.430111 -1.1732,-0.902857 -1.73059,-1.382406 -0.52294,-0.46469 -1.00117,-0.964368 -1.5243,-1.429323 -0.4305,-0.416012 -0.86947,-0.825573 -1.27396,-1.260559 -0.451,-0.433808 -0.85635,-0.908712 -1.18664,-1.416854 -0.2829,-0.508912 -0.54797,-1.025318 -0.79245,-1.548538 -0.18815,-0.503619 -0.5019,-0.95202 -0.85263,-1.384959 -0.31831,-0.438551 -0.64543,-0.879425 -0.83838,-1.372753 -0.22959,-0.443823 -0.42949,-0.896219 -0.65985,-1.339856 -0.24894,-0.445882 -0.44748,-0.903957 -0.63863,-1.369913 -0.32884,-0.58679 -0.63469,-1.189131 -0.84015,-1.816994 -0.20744,-0.878766 -0.44474,-1.757255 -0.38041,-2.662192 0.009,-0.980976 0.001,-1.962547 0.0597,-2.942566 0.0679,-0.719212 0.22714,-1.427133 0.29938,-2.144672 0.0733,-0.699557 0.21368,-1.392168 0.52681,-2.045257 0.20315,-0.661145 0.49395,-1.294875 0.50166,-1.98998 0.11698,-0.67972 0.33128,-1.33618 0.43466,-2.01686 0.12103,-0.89618 0.0253,-1.80476 0.10653,-2.70442 0.0605,-0.90432 0.13729,-1.81242 0.45294,-2.68267 0.22265,-0.658 0.56153,-1.25239 1.09621,-1.76842 0.40937,-0.47105 0.75961,-0.9949 1.3388,-1.33136 0.27206,-0.16681 0.51256,-0.39945 0.79999,-0.54404 1.69342,-0.85181 3.35038,-1.701708 5.08262,-2.469528 1.14585,-0.48607 2.31976,-0.92404 3.46713,-1.40806 1.43776,-0.52915 2.92984,-0.92569 4.39534,-1.39277 1.6463,-0.51356 3.28521,-1.04742 4.96414,-1.47903 1.62041,-0.44314 3.23165,-0.90812 4.75724,-1.56285 1.31956,-0.53413 2.61925,-1.10451 3.96531,-1.5896 1.46337,-0.62585 4.00237,-1.93958 -2.34818,1.22782 -0.29588,0.14751 0.58318,-0.30848 0.86097,-0.48009 0.13515,-0.0834 0.27059,-0.16626 0.40588,-0.24949 0.82834,-0.58323 1.61766,-1.20629 2.42574,-1.8105 0,0 4.3227,-1.49967 4.3227,-1.49967 z"
       id="path6441"
       style="opacity:1;fill:#070707;fill-opacity:1;stroke:#000000;stroke-width:0.11223189;stroke-linecap:round;stroke-linejoin:round;stroke-miterlimit:4;stroke-dasharray:none;stroke-dashoffset:0;stroke-opacity:1"
       inkscape:connector-curvature="0" />
    <path
       d="m 143.48078,-111.70319 c -0.34463,1.33555 -0.74473,2.6594 -1.1265,3.98734 -0.3842,1.2318 -0.58266,2.49159 -0.68507,3.76099 -0.0575,1.04679 -0.0536,2.0952 -0.0558,3.14291 -0.0605,1.081938 -0.18175,2.160158 -0.24216,3.242158 -0.0416,0.80915 -0.0467,1.61905 -0.0465,2.42885 -0.0731,0.62643 0.1135,1.20662 0.30334,1.80251 0.14676,0.74348 0.33132,1.47588 0.55747,2.2045 0.21448,0.76057 0.41195,1.52496 0.54296,2.29971 0.17343,0.81004 0.29818,1.626619 0.4893,2.433692 0.19444,0.707281 0.25241,1.430841 0.28073,2.154654 0.0219,0.912158 0.0154,1.824545 0.0193,2.736823 0.0408,0.803407 -0.0211,1.593586 -0.24423,2.3742 -0.24447,0.561267 -0.42053,1.145471 -0.68324,1.700442 -0.34412,0.480605 -0.47149,1.030381 -0.64391,1.56639 -0.20384,0.569522 -0.54721,1.086072 -0.74539,1.657839 -0.16241,0.552143 -0.42549,1.075759 -0.60839,1.62219 -0.15661,0.515131 -0.1829,1.048266 -0.20057,1.577638 -0.0116,0.504653 0.11079,1.010209 0.23333,1.502567 0.1802,0.570622 0.59917,1.026938 0.99993,1.491606 0.43555,0.364955 0.77155,0.8088 1.27192,1.111352 0.43163,0.316882 0.82567,0.671557 1.18236,1.051602 0.39345,0.375619 0.83789,0.690299 1.28581,1.012276 0.47858,0.24552 0.9009,0.551132 1.35098,0.83035 0.41526,0.314142 0.88664,0.562445 1.33735,0.838439 0.46991,0.352035 0.93706,0.720523 1.36635,1.111276 0.46994,0.298986 0.87724,0.664931 1.33494,0.977267 0.46872,0.336538 0.98622,0.601681 1.51685,0.856445 0.50458,0.201739 1.04598,0.344099 1.53285,0.576114 0.20596,0.07308 0.69878,0.292867 0.92276,0.242625 0.0849,-0.01915 0.28637,-0.173948 0.20927,-0.137772 -1.25191,0.587913 -2.49085,1.195966 -3.73627,1.793959 0.66447,-0.363051 0.92217,-0.988009 1.18328,-1.592276 0,0 4.15859,-1.676834 4.15859,-1.676834 v 0 c -0.23285,0.652451 -0.46925,1.305825 -0.99614,1.834967 -2.66182,1.284023 -3.44553,2.726785 -5.64265,1.739843 -0.51239,-0.19695 -1.03365,-0.378141 -1.53612,-0.593118 -0.55405,-0.262293 -1.06477,-0.581122 -1.56007,-0.918761 -0.45909,-0.334072 -0.91184,-0.676113 -1.36257,-1.017394 -0.42104,-0.367256 -0.85783,-0.731011 -1.32971,-1.048366 -0.44484,-0.283941 -0.9296,-0.517629 -1.3375,-0.843128 -0.44729,-0.293658 -0.91018,-0.563325 -1.36652,-0.846099 -0.47463,-0.332191 -0.91189,-0.69435 -1.32909,-1.079831 -0.34253,-0.350615 -0.71671,-0.681704 -1.12584,-0.974792 -0.50021,-0.355357 -0.89728,-0.799279 -1.33534,-1.208633 -0.43704,-0.508845 -0.86803,-1.021522 -1.09255,-1.633735 -0.15158,-0.516759 -0.27508,-1.0587 -0.29128,-1.590483 0.0116,-0.555697 0.0259,-1.114686 0.15449,-1.661415 0.15159,-0.557239 0.41363,-1.077508 0.60832,-1.6234 0.15797,-0.588772 0.44776,-1.118914 0.74567,-1.662285 0.17287,-0.550965 0.27709,-1.134838 0.5994,-1.637752 0.36471,-0.498424 0.41533,-1.107655 0.73635,-1.629103 0.24867,-0.751613 0.38437,-1.504966 0.31881,-2.291215 0.004,-0.906588 0.004,-1.813418 -0.0213,-2.719752 -0.0298,-0.702617 -0.0744,-1.406487 -0.24863,-2.095796 -0.18794,-0.816075 -0.31017,-1.639998 -0.49572,-2.456711 -0.12162,-0.760716 -0.32581,-1.505935 -0.5223,-2.254265 -0.22835,-0.72665 -0.43031,-1.4549 -0.56613,-2.19914 -0.1965,-0.62794 -0.45189,-1.23587 -0.3602,-1.89853 0.009,-0.8194 0.0226,-1.63906 0.0674,-2.45767 0.0629,-1.07727 0.17536,-2.15063 0.25779,-3.22673 -0.004,-1.056778 -0.009,-2.114108 0.0538,-3.169888 0.0822,-1.29672 0.28133,-2.58359 0.68336,-3.83866 0.37221,-1.31066 0.80041,-2.61404 1.03168,-3.95011 0,0 4.2015,-1.72996 4.2015,-1.72996 z"
       id="path6443"
       style="opacity:1;fill:#070707;fill-opacity:1;stroke:#000000;stroke-width:0.11223189;stroke-linecap:round;stroke-linejoin:round;stroke-miterlimit:4;stroke-dasharray:none;stroke-dashoffset:0;stroke-opacity:1"
       inkscape:connector-curvature="0" />
    <path
       d="m 120.35562,-118.60172 c 0.50322,1.04167 1.02391,2.0766 1.46377,3.13975 0.35724,0.9539 0.86995,1.8562 1.30493,2.78391 0.30997,0.84874 0.6889,1.66867 1.20788,2.43883 0.39644,0.56217 0.83259,1.09738 1.18047,1.68471 0.24348,0.52506 0.62131,0.95627 1.01908,1.39721 0.40427,0.50122 0.7288,1.03731 0.96469,1.61156 0.13515,0.65138 0.54569,1.2077 0.83444,1.80883 0.32494,0.59062 0.56985,1.21487 0.78995,1.83988 0.13727,0.54698 0.5109,0.9913 0.80671,1.47612 0.31939,0.544748 0.6,1.107328 0.96354,1.632908 0.37223,0.44605 0.69051,0.9214 1.03395,1.38387 0.35452,0.46357 0.57503,0.98476 0.87234,1.47358 0.3351,0.50087 0.68187,0.98837 1.05433,1.46889 0.42264,0.46884 0.76804,0.97531 1.06924,1.50781 0.30802,0.61293 0.3538,1.28825 0.57209,1.92465 0.20436,0.66675 0.39169,1.33802 0.57132,2.01048 0.15468,0.58879 0.20452,1.190926 0.23141,1.792364 -0.0304,0.530406 0.0956,1.047122 0.1858,1.568328 0.0946,0.604377 0.0949,1.212198 0.20254,1.815189 0.13824,0.537505 0.33248,1.057445 0.61758,1.550311 0.25592,0.489915 0.49418,0.985345 0.83763,1.436235 0.33994,0.441952 0.55857,0.944877 0.74498,1.447329 0.24488,0.522361 0.39923,1.063993 0.48848,1.620484 0.0642,0.552518 0.0975,1.109965 0.0528,1.664266 -0.0924,0.562587 -0.47673,1.021126 -0.82635,1.485629 -0.38941,0.488638 -0.84663,0.941091 -1.35037,1.345062 -0.55289,0.403212 -1.14467,0.764622 -1.68623,1.179149 -0.5044,0.384116 -0.92919,0.836689 -1.40058,1.249673 -0.46047,0.378327 -0.89529,0.780152 -1.38414,1.13201 -0.47683,0.268005 -0.94318,0.553035 -1.36155,0.886227 -0.45958,0.366155 -0.85038,0.788208 -1.29941,1.164379 -0.39509,0.360134 -0.88656,0.623967 -1.3579,0.90268 -0.61177,0.342581 -1.07199,0.825409 -1.5599,1.28234 -0.41812,0.380187 -0.80115,0.789473 -1.18429,1.196262 -0.40224,0.367178 -0.85041,0.698213 -1.29851,1.023911 -0.35441,0.36348 -0.72245,0.702813 -1.12379,1.028753 -0.38933,0.319203 -0.69459,0.688803 -1.01465,1.056719 -0.32311,0.36709 -0.75408,0.626466 -1.17878,0.894855 -0.36597,0.321339 -0.77281,0.605621 -1.18901,0.876949 -1.67798,1.17315 -3.52777,1.896501 -5.47207,2.835732 -0.59115,0.124828 -1.20378,0.12539 -1.80874,0.130826 -0.62847,8.81e-4 -1.25691,-0.0033 -1.88537,-0.0055 -0.5423,-0.116398 -1.08814,-0.199074 -1.64495,-0.239157 -0.60296,-0.0339 -1.20755,-0.0339 -1.8115,-0.03544 -0.6362,-0.03005 -1.24553,0.0077 -1.84403,0.200197 -0.67049,0.221791 -1.38944,0.271758 -2.09961,0.314471 -0.67788,0.01122 -1.36533,0.08189 -2.0359,-0.02047 -0.64551,-0.170371 -0.78892,-0.66743 -0.88228,-1.179973 0,0 4.10454,-1.845775 4.10454,-1.845775 v 0 c 0.0173,0.376632 0.0819,0.663886 0.57619,0.710562 0.65817,0.02641 1.31849,8.69e-4 1.97515,-0.0416 0.69999,-0.0635 1.38496,-0.176007 2.05014,-0.379406 0.63718,-0.115088 1.276,-0.130827 1.92607,-0.109619 0.61443,0.0055 1.23012,0.0099 1.84181,0.06504 0.54095,0.0579 1.07032,0.176568 1.61377,0.209024 0.62608,0.0022 1.2523,0.0077 1.87827,-0.0055 0.57873,-0.0197 1.17026,-0.04182 1.70418,-0.256029 -6.96531,3.46988 -3.92273,2.120889 -2.51882,1.134332 0.41228,-0.267696 0.82581,-0.523956 1.20631,-0.824957 0.3263,-0.362743 0.84761,-0.512203 1.2047,-0.857006 0.35619,-0.348513 0.57338,-0.774605 1.00589,-1.066316 0.32749,-0.397401 0.86843,-0.606369 1.10857,-1.071169 0.40728,-0.358726 0.88068,-0.65769 1.31309,-0.991884 0.43881,-0.373672 0.78466,-0.820027 1.18918,-1.219727 0.53568,-0.423605 0.92532,-0.966361 1.52214,-1.336169 0.45052,-0.30066 0.94289,-0.542448 1.39082,-0.842776 0.42833,-0.39466 0.90725,-0.748466 1.27868,-1.190319 0.4419,-0.314724 0.83703,-0.682927 1.33939,-0.932 0.5631,-0.259134 0.97511,-0.698389 1.42447,-1.080514 0.51772,-0.374244 0.93061,-0.83571 1.38678,-1.263112 0.56126,-0.392844 1.08849,-0.822977 1.69102,-1.172502 0.51755,-0.373242 0.98401,-0.791399 1.39846,-1.249739 0.33527,-0.422362 0.68859,-0.837625 0.91502,-1.313365 0.10365,-0.519908 0.0273,-1.054452 -0.002,-1.57863 -0.0696,-0.536328 -0.20114,-1.059833 -0.45124,-1.557816 -0.16396,-0.470755 -0.37344,-0.938439 -0.6815,-1.353867 -0.34238,-0.467013 -0.61287,-0.964424 -0.86442,-1.471212 -0.31243,-0.528568 -0.50717,-1.089725 -0.67628,-1.663462 -0.11505,-0.60386 -0.14617,-1.208093 -0.21247,-1.816786 -0.0878,-0.535821 -0.2504,-1.063035 -0.20994,-1.608289 -0.0154,-0.579284 -0.0462,-1.160405 -0.18176,-1.729849 -0.16744,-0.665395 -0.35773,-1.327143 -0.55542,-1.985793 -0.21629,-0.61586 -0.28179,-1.26273 -0.54306,-1.86582 -0.2879,-0.51843 -0.62854,-1.00508 -1.04067,-1.45828 -0.3803,-0.49226 -0.722,-0.99753 -1.07322,-1.50548 -0.29785,-0.47665 -0.51177,-0.98758 -0.86054,-1.44143 -0.34846,-0.46596 -0.65625,-0.95278 -1.03285,-1.40292 -0.35937,-0.53495 -0.66061,-1.09574 -0.98428,-1.64606 -0.30473,-0.50959 -0.6961,-0.97627 -0.84248,-1.54797 -0.20223,-0.615508 -0.44717,-1.225958 -0.76083,-1.805938 -0.28875,-0.60852 -0.72442,-1.16602 -0.85016,-1.82713 -0.21057,-0.53577 -0.52528,-1.0275 -0.89659,-1.49413 -0.41694,-0.46025 -0.8017,-0.92111 -1.06485,-1.46431 -0.33671,-0.58262 -0.76282,-1.11616 -1.13917,-1.67914 -0.52505,-0.7875 -0.93754,-1.61782 -1.23589,-2.48967 -0.43413,-0.93518 -0.94171,-1.84666 -1.29117,-2.81032 -0.42551,-1.0559 -0.92511,-2.08839 -1.51045,-3.08675 0,0 4.06548,-1.96255 4.06548,-1.96255 z"
       id="path6445"
       style="opacity:1;fill:#070707;fill-opacity:1;stroke:#000000;stroke-width:0.11223189;stroke-linecap:round;stroke-linejoin:round;stroke-miterlimit:4;stroke-dasharray:none;stroke-dashoffset:0;stroke-opacity:1"
       inkscape:connector-curvature="0" />
    <path
       d="m 127.17693,-83.135811 c -0.18214,0.844393 -0.47197,1.666687 -0.69372,2.503145 -0.13845,0.597839 -0.27508,1.200313 -0.50809,1.777142 -0.21458,0.456106 -0.27023,0.947189 -0.3973,1.423006 -0.15333,0.512302 -0.21143,1.038196 -0.24511,1.564663 -0.0259,0.537318 -0.0242,1.075241 -0.0242,1.612912 5.6e-4,0.540135 0.002,1.080249 0.002,1.620374 2.8e-4,0.540037 5.6e-4,1.080074 5.6e-4,1.62011 0.007,0.605577 0.0116,1.208468 -0.0785,1.809808 -0.0419,0.583785 -0.22842,1.108215 -0.53323,1.625734 -0.36059,0.523318 -0.79523,1.005982 -1.27913,1.448638 -0.48886,0.393714 -1.01257,0.75452 -1.51683,1.133926 -0.47749,0.392954 -0.97211,0.771534 -1.48114,1.134145 -0.48365,0.373903 -0.96929,0.745495 -1.45782,1.114599 -0.51545,0.400273 -1.08222,0.747343 -1.6479,1.092466 -1.6418,1.081889 -3.54892,1.843849 -5.31339,2.745593 -1.23145,0.629372 2.48444,-1.227034 3.72665,-1.840569 -0.54418,0.291425 -1.06719,0.609705 -1.60703,0.90693 -1.71014,0.908062 -3.42531,1.761667 -5.21016,2.590587 -0.0778,0.03599 -0.76109,0.131762 -0.83562,0.142823 -0.96072,0.132885 -1.90453,-0.07308 -2.83879,-0.241096 -0.7491,-0.141326 -1.51592,-0.16851 -2.27966,-0.187529 -0.74791,-0.0131 -1.49602,-0.0077 -2.24401,-0.0055 -0.45635,-0.06845 -1.178044,0.130826 -1.595384,-0.04953 -0.11967,-0.05173 -0.21067,-0.142075 -0.31601,-0.213205 -0.0962,-0.09729 -0.19231,-0.194541 -0.28847,-0.291822 0,0 3.971144,-2.072419 3.971144,-2.072419 v 0 c 0.0779,0.06526 0.15566,0.130266 0.2335,0.195344 0.551,0.182555 1.1814,0.03466 1.75956,0.08001 0.74852,8.69e-4 1.49721,0.0022 2.24539,0.02366 0.78098,0.02928 1.56129,0.08563 2.32324,0.244705 0.89953,0.16401 1.81004,0.301242 2.7219,0.104445 1.62454,-0.379439 3.5028,-1.595568 -2.89903,1.605462 -0.20858,0.104223 0.85004,-0.40953 0.61168,-0.332753 0.0992,-0.05228 0.19824,-0.104444 0.29737,-0.156515 0.5649,-0.260718 1.06323,-0.601812 1.61001,-0.886809 8.78488,-4.41303 2.76306,-1.383671 0.54063,-0.282852 -0.094,0.04644 0.18116,-0.102579 0.2741,-0.150517 0.27124,-0.140005 0.53366,-0.284149 0.79009,-0.444703 0.52901,-0.380418 1.14236,-0.670776 1.65469,-1.070311 0.49555,-0.364504 0.97544,-0.739915 1.46235,-1.111463 0.47645,-0.387428 1.00881,-0.725353 1.48793,-1.113157 0.44906,-0.427667 1.00428,-0.770786 1.52652,-1.129082 0.49042,-0.417255 0.9347,-0.856412 1.32104,-1.349289 0.33672,-0.470699 0.58814,-0.932693 0.61357,-1.496514 0.10867,-0.584313 0.12318,-1.163663 0.10034,-1.755416 -2e-5,-0.539949 -4e-5,-1.079908 -2.7e-4,-1.619868 -2.9e-4,-0.540147 -10e-4,-1.080293 -0.002,-1.620462 -5.6e-4,-0.543229 -0.004,-1.0866 0.0136,-1.629675 0.0244,-0.546607 0.0633,-1.094931 0.20619,-1.629828 0.13496,-0.488396 0.1984,-0.985423 0.37039,-1.465928 0.25244,-0.562963 0.44186,-1.143127 0.5589,-1.740141 0.21153,-0.825089 0.52603,-1.627473 0.68148,-2.463117 0,0 4.18733,-1.769977 4.18733,-1.769977 z"
       id="path6447"
       style="opacity:1;fill:#070707;fill-opacity:1;stroke:#000000;stroke-width:0.11223189;stroke-linecap:round;stroke-linejoin:round;stroke-miterlimit:4;stroke-dasharray:none;stroke-dashoffset:0;stroke-opacity:1"
       inkscape:connector-curvature="0" />
    <path
       d="m 155.98772,-112.78254 c -0.62748,0.54008 -1.23844,1.09511 -1.84325,1.65419 -0.49144,0.41282 -0.98183,0.82658 -1.43371,1.27199 -0.44263,0.40588 -0.91625,0.78889 -1.38642,1.17187 -0.46171,0.41371 -0.95621,0.79795 -1.44392,1.18873 -0.50203,0.46038 -1.03242,0.89586 -1.56267,1.33203 -0.49011,0.46526 -1.02846,0.88939 -1.53879,1.33754 -0.47679,0.45489 -0.90019,0.94656 -1.36249,1.41191 -0.3435,0.41764 -0.68272,0.83856 -1.07674,1.22283 -0.39212,0.35339 -0.68584,0.77579 -1.0098,1.17476 -0.38218,0.4258 -0.60195,0.93302 -0.80242,1.436988 -0.22023,0.45243 -0.38522,0.91286 -0.51682,1.38928 -0.16588,0.52549 -0.40492,1.02732 -0.54233,1.5597 -0.11678,0.51687 -0.15042,1.03787 -0.0667,1.55893 0.0711,0.54718 0.18426,1.06917 0.41163,1.58369 0.21358,0.55457 0.521,1.07658 0.76156,1.62191 0.21776,0.56356 0.57297,1.07154 0.86053,1.6079 0.14251,0.25692 0.27404,0.51477 0.43617,0.76303 0,0 -4.03814,1.995057 -4.03814,1.995057 v 0 c -0.16414,-0.259354 -0.30081,-0.526407 -0.44985,-0.792377 -0.28461,-0.5479 -0.65698,-1.05923 -0.8782,-1.63201 -0.23029,-0.54739 -0.54974,-1.06359 -0.75886,-1.61817 -0.24339,-0.54091 -0.40422,-1.07738 -0.462,-1.65781 -0.10884,-0.5621 -0.11812,-1.117 -0.005,-1.68193 0.10887,-0.54766 0.31597,-1.06093 0.52453,-1.58372 0.16685,-0.46972 0.20455,-0.97445 0.51379,-1.40413 0.17459,-0.53802 0.40277,-1.07681 0.73674,-1.55656 0.35113,-0.39569 0.64268,-0.822278 0.98423,-1.221848 0.42278,-0.35406 0.80265,-0.75337 1.09766,-1.19349 0.43045,-0.4928 0.93098,-0.93837 1.35763,-1.43552 0.47174,-0.48783 1.06802,-0.87009 1.53013,-1.3654 0.52681,-0.4379 1.08475,-0.85406 1.55849,-1.33491 0.48053,-0.39388 0.99586,-0.76164 1.43412,-1.18939 0.47699,-0.37002 0.90576,-0.77694 1.4061,-1.12586 0.44223,-0.46341 0.9141,-0.90194 1.43323,-1.30351 0.63334,-0.52756 1.21281,-1.10244 1.82127,-1.65082 0,0 4.31109,-1.53488 4.31109,-1.53488 z"
       id="path6449"
       style="opacity:1;fill:none;fill-opacity:1;stroke:#31d67b;stroke-width:0.11223189;stroke-linecap:round;stroke-linejoin:round;stroke-miterlimit:4;stroke-dasharray:none;stroke-dashoffset:0;stroke-opacity:0.12156863"
       inkscape:connector-curvature="0" />
    <path
       d="m 142.36161,-92.746692 c 0.55672,0.80434 0.9394,1.68127 1.48097,2.49316 0.41752,0.63655 0.87085,1.25756 1.35759,1.85683 0.47669,0.37368 0.74095,0.876698 1.10987,1.318859 0.3198,0.422537 0.50992,0.894437 0.80552,1.329489 0.491,0.609582 0.63032,1.356904 0.78124,2.071285 0.25581,1.054903 0.50429,2.112557 0.68837,3.178642 0.23011,1.059294 0.35107,2.132676 0.54339,3.196339 0.15081,0.649017 0.27007,1.30148 0.33109,1.961228 0.0503,0.54806 0.0199,1.09842 0.0655,1.646314 0.11273,0.766153 0.47051,1.485619 0.70901,2.227206 0.24212,0.928215 0.74168,1.777802 1.20322,2.635029 0.35951,0.621557 0.79658,1.205617 1.16184,1.824732 0.39138,0.53231 0.66677,1.117504 1.01217,1.672101 0.40708,0.591677 0.85243,1.162078 1.41127,1.655516 0.52701,0.558725 1.14466,1.018298 1.80809,1.450983 0.78883,0.467519 1.62692,0.870895 2.44611,1.297803 0.71546,0.426302 1.53576,0.65759 2.32503,0.950259 0.59192,0.21873 1.22769,0.30997 1.84748,0.450724 0.59849,0.128384 1.21553,0.154446 1.82925,0.171307 0.62553,0.01122 1.25124,0.0077 1.87686,0.0077 0.62838,-8.69e-4 1.25675,-0.0022 1.88512,-0.0022 0.60743,-0.03357 1.23707,0.07099 1.83106,-0.05591 1.42675,-0.411532 4.45994,-2.106933 -3.12256,1.601015 -0.14232,0.06956 0.27384,-0.155954 0.39679,-0.249009 0.1829,-0.16588 0.25613,-0.368631 0.33151,-0.581044 0,0 4.20222,-1.736849 4.20222,-1.736849 v 0 c -0.052,0.255403 -0.10269,0.510573 -0.24033,0.744977 -1.06255,1.515653 -3.31605,2.291656 -5.3035,2.620842 -0.6208,0.01915 -1.24227,0.0033 -1.86334,0.0089 -0.62834,5.83e-4 -1.25669,0.0022 -1.88503,0.0022 -0.63003,1.1e-4 -1.26041,0.0022 -1.88994,-0.02267 -0.63599,-0.0328 -1.27124,-0.08981 -1.88618,-0.241215 -0.63324,-0.144695 -1.28142,-0.249262 -1.87315,-0.503739 -0.8123,-0.288674 -1.61743,-0.58591 -2.35668,-1.0018 -0.82995,-0.433126 -1.66797,-0.858338 -2.46329,-1.337369 -0.68365,-0.445761 -1.31905,-0.923868 -1.85829,-1.501775 -0.56779,-0.532355 -1.05469,-1.120598 -1.48753,-1.739525 -0.34713,-0.556754 -0.60783,-1.150257 -1.00512,-1.683261 -0.37699,-0.620985 -0.80502,-1.217559 -1.16377,-1.846545 -0.45485,-0.881935 -0.95372,-1.75272 -1.21926,-2.695782 -0.25387,-0.758426 -0.64021,-1.487741 -0.78063,-2.269776 -0.0897,-0.549622 -0.0373,-1.104771 -0.0776,-1.658432 -0.0445,-0.653178 -0.14193,-1.300929 -0.28503,-1.943815 -0.19181,-1.066834 -0.25731,-2.150616 -0.52069,-3.209338 -0.18407,-1.05968 -0.42922,-2.111919 -0.69464,-3.158523 -0.15158,-0.665956 -0.2821,-1.366866 -0.74804,-1.931908 -0.28676,-0.42585 -0.48318,-0.880811 -0.78379,-1.297626 -0.36639,-0.4451 -0.63136,-0.94611 -1.0959,-1.331162 -0.49198,-0.610628 -0.94748,-1.245096 -1.36013,-1.897587 -0.52771,-0.80646 -0.88728,-1.68765 -1.50162,-2.44977 0,0 4.02524,-2.02736 4.02524,-2.02736 z"
       id="path6451"
       style="opacity:1;fill:#070707;fill-opacity:1;stroke:#000000;stroke-width:0.11223189;stroke-linecap:round;stroke-linejoin:round;stroke-miterlimit:4;stroke-dasharray:none;stroke-dashoffset:0;stroke-opacity:1"
       inkscape:connector-curvature="0" />
    <path
       d="m 154.25318,-103.02531 c 1.79311,-0.61451 6.63861,-3.05758 -0.48296,0.44557 1.73275,-0.9323 3.53469,-1.76522 5.30238,-2.64655 1.18309,-0.58986 -2.36937,1.17511 -3.56033,1.7532 -0.13902,0.0674 0.32776,-0.18051 0.78994,-0.42698 1.57068,-1.46672 3.32626,-1.64622 5.07369,-2.41989 0.29449,-0.13045 0.54891,-0.27465 0.85976,-0.38033 -0.88418,0.43234 1.68899,-0.76453 0.83295,-0.34169 -6.42194,3.17216 -4.58258,2.32617 -3.23368,1.54466 0.52287,-0.35197 1.05208,-0.69198 1.54613,-1.07434 0.51381,-0.36843 0.99663,-0.7659 1.508,-1.137 1.79639,-1.14541 3.84595,-2.02229 5.76732,-2.96513 0.10387,-0.0467 0.20756,-0.0936 0.31158,-0.13982 0.24889,-0.11077 0.99115,-0.45008 0.74866,-0.32922 -7.67246,3.82404 -1.42777,0.69183 1.22911,-0.58061 -0.25949,0.1582 1.00885,-0.46637 0.76061,-0.34356 -8.27911,4.09534 -0.97615,0.46519 0.72929,-0.34891 0.24169,-0.11546 0.51408,-0.17525 0.76665,-0.27203 0.1193,-0.0552 0.47522,-0.22409 0.35779,-0.16588 -1.20604,0.59736 -4.81717,2.39947 -3.62381,1.78359 1.40988,-0.72763 3.42778,-2.04056 5.337,-2.44898 0.59173,-0.0413 1.13998,-0.22583 1.72406,-0.30545 0.28751,-0.0341 0.57747,-0.045 0.86705,-0.0566 0,0 -3.75208,2.37774 -3.75208,2.37774 v 0 c -0.28013,0.0224 -0.56072,0.0448 -0.83597,0.0976 -0.56222,0.11191 -1.12376,0.22145 -1.6855,0.33272 -0.32577,0.10263 -1.47216,0.63427 -0.95028,0.37316 7.71152,-3.85819 1.59977,-0.72182 -1.07734,0.4886 -0.25062,0.0931 -0.98058,0.41108 -0.74577,0.29124 1.19298,-0.60884 4.8039,-2.38831 3.59776,-1.79895 -1.69835,0.8299 -3.33715,1.73463 -5.07769,2.4914 -0.13882,0.0616 -0.55092,0.25366 -0.4165,0.18519 1.17243,-0.59781 4.72299,-2.34192 3.53112,-1.77324 -1.81849,0.86768 -3.56085,1.85005 -5.4263,2.64212 6.94782,-3.47144 3.6906,-1.9092 2.18597,-1.01709 -0.55079,0.32788 -1.01128,0.74638 -1.51661,1.11975 -0.27309,0.18538 -0.49782,0.40937 -0.7682,0.59568 -0.17015,0.11733 -0.37782,0.19095 -0.54567,0.31073 -0.0802,0.0571 -0.14193,0.13102 -0.21301,0.19649 -1.71558,1.11047 -3.6281,1.99706 -5.58348,2.75801 -1.59892,0.70595 -4.84826,2.1211 2.04132,-1.12159 -2.59651,1.26475 -9.42237,4.73802 -1.64184,0.85195 0.30596,-0.15276 -1.28228,0.62281 -0.90843,0.4721 -2.45972,1.22303 -4.86791,2.47901 -7.45719,3.48125 0,0 3.6345,-2.49888 3.6345,-2.49888 z"
       id="path6453"
       style="opacity:1;fill:none;fill-opacity:1;stroke:#00ff76;stroke-width:0.11223189;stroke-linecap:round;stroke-linejoin:round;stroke-miterlimit:4;stroke-dasharray:none;stroke-dashoffset:0;stroke-opacity:1"
       inkscape:connector-curvature="0" />
    <path
       d="m 168.88081,-110.45424 c -0.89864,0.13776 -1.75527,0.39668 -2.61297,0.6559 -0.74899,0.33901 -1.59544,0.44331 -2.36959,0.72394 -0.7176,0.24533 -1.40612,0.54638 -2.08374,0.86445 6.82932,-3.61268 3.1835,-1.54454 1.64466,-0.65725 -0.67877,0.42316 -1.35583,0.8468 -2.02644,1.27961 -0.76878,0.4951 -1.44577,1.07853 -2.25077,1.53077 -1.99483,1.33176 -4.35847,2.03919 -6.51316,3.10494 -0.64341,0.2373 -1.26761,0.49536 -1.8887,0.76962 1.2439,-0.61377 4.98113,-2.44667 3.7317,-1.84128 -1.42445,0.69021 -2.83895,1.39551 -4.25679,2.0957 -0.0908,0.0448 -0.35995,0.18405 -0.26909,0.13925 1.23275,-0.60749 2.46066,-1.22225 3.69484,-1.82759 0.099,-0.0486 -0.19007,0.1083 -0.28885,0.15706 -1.42633,0.70315 -2.85753,1.39897 -4.2863,2.09846 -1.52788,0.69019 -0.70938,0.32451 3.3767,-1.67812 0.10751,-0.0526 -0.21195,0.11006 -0.31661,0.16682 -0.31719,0.17206 -0.63124,0.34899 -0.94249,0.52894 -2.58038,1.3885 -8.73866,4.313038 -0.89579,0.47869 0.0926,-0.0453 -0.18001,0.0979 -0.26829,0.14901 -0.16668,0.0967 -0.32896,0.19883 -0.49377,0.29786 -0.48503,0.33576 -0.99253,0.64595 -1.49085,0.9665 -0.49483,0.38057 -1.04694,0.696818 -1.59061,1.021998 -0.59832,0.3038 -1.1262,0.69051 -1.64069,1.08872 -0.47489,0.40439 -0.97039,0.79161 -1.48254,1.16091 -0.48163,0.37598 -0.96738,0.74774 -1.45593,1.11704 -0.46705,0.37538 -0.9071,0.77727 -1.30545,1.20738 -0.43283,0.46019 -0.90834,0.88428 -1.38688,1.30851 -0.549,0.48677 -0.96875,1.05538 -1.38515,1.62664 -0.69039,0.91753 -1.1515,1.93519 -1.61902,2.94527 -0.48314,1.04364 -1.06354,2.049818 -1.45003,3.12452 -0.28853,0.937261 -0.45601,1.896116 -0.65259,2.849468 -0.16956,1.023492 -0.51123,2.014626 -0.71234,3.033155 -0.16087,0.8867 -0.20799,1.783965 -0.22665,2.679921 0.007,0.565362 -0.0474,1.138878 -0.29747,1.665378 -0.33916,0.482344 -0.75341,0.922271 -1.14245,1.37524 -0.55123,0.530627 -1.12304,1.032935 -1.60932,1.610821 -0.50773,0.784631 -0.98418,1.581491 -1.5181,2.354423 -0.4987,0.679184 -1.06243,1.321146 -1.69941,1.90842 -0.5496,0.530373 -1.13756,1.028786 -1.78712,1.468053 -0.47882,0.363624 -0.99206,0.689067 -1.49525,1.026353 -0.59751,0.35997 -1.15967,0.760673 -1.76444,1.111474 -1.69209,1.106212 -3.49826,1.881147 -5.41556,2.790377 -0.3066,0.145442 -0.65471,0.213899 -0.97873,0.327987 -1.1552,0.48176 -2.39701,0.718441 -3.62589,1.012485 -1.43792,0.277107 -2.89737,0.481431 -4.35835,0.647774 -1.33862,0.208055 -2.6912,0.329604 -4.04825,0.398974 -0.89594,0.109509 -1.78881,0.231278 -2.69159,0.290611 -0.64026,0.0088 -1.296024,0.09498 -1.927274,-0.01684 0,0 3.809174,-2.313722 3.809174,-2.313722 v 0 c 0.61886,0.02399 1.23951,-0.0089 1.85685,-0.04644 0.88979,-0.07253 1.77207,-0.197468 2.66282,-0.261885 1.34712,-0.08001 2.68631,-0.217818 4.01742,-0.415219 1.4478,-0.178637 2.90049,-0.36588 4.31634,-0.686019 1.23471,-0.291138 2.45481,-0.601284 3.61874,-1.068539 1.57707,-0.562125 3.5849,-1.705186 -2.57885,1.406134 -0.45869,0.231531 1.50399,-0.724441 1.02041,-0.613402 0.60804,-0.339048 1.17901,-0.706402 1.7508,-1.090177 0.53346,-0.303113 1.04677,-0.644867 1.51493,-1.02063 0.66228,-0.422033 1.30254,-0.872459 1.83325,-1.419704 0.65162,-0.558187 1.21554,-1.169167 1.73071,-1.824963 0.56271,-0.766869 1.09286,-1.547648 1.52118,-2.37758 0.45018,-0.59862 0.94921,-1.146472 1.5638,-1.62821 0.42224,-0.411103 0.75029,-0.888737 1.1665,-1.304693 0.36197,-0.42891 0.40825,-0.988031 0.4207,-1.505142 0.0253,-0.91678 0.0716,-1.833723 0.22526,-2.742501 0.18988,-1.021764 0.51091,-2.013912 0.69993,-3.034751 0.20641,-0.964238 0.36729,-1.934648 0.63004,-2.889485 0.36918,-1.094624 0.94361,-2.11335 1.45212,-3.163531 0.46851,-1.015505 0.89711,-2.050895 1.55183,-2.992765 0.40353,-0.58557 0.79379,-1.18126 1.33233,-1.68524 0.43454,-0.45596 0.97811,-0.82628 1.39238,-1.29843 0.43197,-0.41719 0.81168,-0.86664 1.27316,-1.2638 0.49554,-0.36442 0.97558,-0.73977 1.46139,-1.11229 0.48034,-0.39315 1.01723,-0.73622 1.4924,-1.13731 0.46247,-0.45142 1.03047,-0.83269 1.6062,-1.17091 0.56202,-0.28972 1.09175,-0.62805 1.60987,-0.97192 0.44836,-0.37113 0.99819,-0.63752 1.48053,-0.9758 1.34048,-1.049718 4.1024,-2.178048 5.00475,-2.617678 1.22871,-0.59859 -2.43945,1.22407 -3.6616,1.83249 -0.1077,0.0536 0.21226,-0.1121 0.31839,-0.16814 1.81949,-1.15698 3.87933,-2.03153 5.83877,-2.98211 -1.22989,0.61365 -2.46024,1.22652 -3.68961,1.84097 -0.0975,0.0488 0.19684,-0.0949 0.29433,-0.14395 1.42124,-0.71362 2.83966,-1.43137 4.26177,-2.14367 0.0919,-0.0459 0.37192,-0.17713 0.28003,-0.1312 -1.24002,0.6194 -4.97973,2.44785 -3.72442,1.85169 1.43168,-0.67993 2.83572,-1.402 4.25356,-2.10299 0.61086,-0.27478 1.26635,-0.46957 1.86436,-0.76699 1.61159,-0.73872 5.5043,-2.41085 -1.40931,0.82461 0.85668,-0.38267 1.5128,-0.95837 2.25509,-1.48105 0.6672,-0.44037 1.34296,-0.86775 2.02064,-1.29147 1.96032,-1.26197 4.17983,-2.25272 6.27897,-3.30271 0.68912,-0.31156 1.39557,-0.5983 2.12845,-0.82613 0.79766,-0.2231 1.60091,-0.42917 2.3727,-0.71488 0.87084,-0.25745 1.76037,-0.45191 2.65054,-0.65241 0,0 -3.69624,2.44617 -3.69624,2.44617 z"
       id="path6455"
       style="opacity:1;fill:#070707;fill-opacity:1;stroke:#000000;stroke-width:0.11223189;stroke-linecap:round;stroke-linejoin:round;stroke-miterlimit:4;stroke-dasharray:none;stroke-dashoffset:0;stroke-opacity:1"
       inkscape:connector-curvature="0" />
    <path
       d="m 54.129317,-141.87624 c 1.007973,0.56856 -0.394368,1.44837 -1.099427,1.43997 -1.910669,-0.0228 -2.68985,-1.98124 -2.251205,-3.32996 0.784637,-2.41253 4.126658,-3.27495 6.648913,-2.42996 3.70151,1.24006 4.957143,5.13192 3.402978,8.09991 -2.071457,3.95586 -7.822195,5.25608 -12.198397,3.41996 -5.507001,-2.31057 -7.27857,-8.31796 -4.554753,-12.86986 3.298908,-5.51297 11.53445,-7.25899 17.747884,-4.40994 7.322314,3.3575 9.614045,11.51152 5.706528,17.6398 -4.511382,7.07535 -15.25199,9.26928 -23.297369,5.39993 -9.141668,-4.39663 -11.955179,-14.70806 -6.858305,-22.40977 5.717919,-8.64013 18.971944,-11.28294 28.846854,-6.38991 10.963025,5.43222 14.299135,17.90612 8.010082,27.17971"
       id="path6457"
       style="fill:none;fill-opacity:1;fill-rule:evenodd;stroke:#00ff76;stroke-width:3.26888967;stroke-linecap:round;stroke-miterlimit:4;stroke-dasharray:none;stroke-opacity:1"
       inkscape:connector-curvature="0" />
    <path
       d="m 83.028517,-168.87594 c 0.866226,0.41965 -0.230769,1.21068 -0.811481,1.23748 -1.573699,0.0726 -2.341621,-1.50169 -2.067968,-2.63247 0.4895,-2.02271 3.183721,-2.89219 5.313892,-2.31747 3.126111,0.8434 4.411229,3.98584 3.324457,6.50242 -1.448497,3.35421 -6.096434,4.6991 -9.816305,3.39747 -4.681082,-1.63797 -6.527668,-6.49653 -4.580944,-10.37239 2.357741,-4.69418 9.021487,-6.52473 14.318715,-4.47746 6.242608,2.41265 8.656153,9.01274 5.837435,14.24236 -3.254328,6.03778 -11.950417,8.35669 -18.821131,5.55743 -7.806944,-3.1807 -10.789482,-11.53112 -7.093919,-18.11229 4.145866,-7.38311 14.881107,-10.19156 23.32354,-6.63743 9.372712,3.94576 12.925242,14.05059 8.350402,21.98225"
       id="path6459"
       style="fill:none;fill-opacity:1;fill-rule:evenodd;stroke:#00ff76;stroke-width:3.26888967;stroke-miterlimit:4;stroke-dasharray:none;stroke-opacity:1"
       inkscape:connector-curvature="0" />
    <path
       d="m 123.2361,-157.26607 c 0.97649,0.44673 -0.21881,1.35177 -0.86383,1.39499 -1.74791,0.1171 -2.6511,-1.61606 -2.38208,-2.87998 0.48123,-2.26084 3.45043,-3.28996 5.83744,-2.69996 3.503,0.86586 5.03039,4.33105 3.90033,7.15492 -1.50619,3.76376 -6.63334,5.36672 -10.81102,4.00496 -5.25719,-1.71365 -7.46258,-7.07446 -5.4186,-11.42987 2.47556,-5.27502 9.82943,-7.46458 15.78464,-5.30995 7.018,2.53917 9.90832,9.82372 6.93682,15.70482 -3.4307,6.78999 -13.02958,9.56958 -20.7582,6.61494 -8.78178,-3.35727 -12.35957,-12.57531 -8.45511,-19.97978 4.38022,-8.30672 16.23164,-11.67783 25.73183,-7.91991 10.54699,4.172 14.8135,15.32806 9.97335,24.25472"
       id="path6461"
       style="fill:none;fill-opacity:1;fill-rule:evenodd;stroke:#00ff76;stroke-width:3.26888967;stroke-miterlimit:4;stroke-dasharray:none;stroke-opacity:1"
       inkscape:connector-curvature="0" />
    <path
       d="m 166.89904,-172.3859 c 0.91347,0.70395 -0.65329,1.40568 -1.3612,1.305 -1.91838,-0.27288 -2.3555,-2.34536 -1.67531,-3.64497 1.2167,-2.32471 4.73199,-2.75518 7.1201,-1.57498 3.50463,1.73197 4.07875,5.81201 1.98942,8.59491 -2.78474,3.70914 -8.80107,4.26494 -12.87899,1.84496 -5.13165,-3.04528 -5.85022,-9.32134 -2.30354,-13.54484 4.29549,-5.11523 12.89083,-5.79446 18.63788,-2.11496 6.77272,4.33614 7.63448,12.84008 2.61768,18.49478 -5.79212,6.52857 -16.98724,7.33073 -24.3968,2.38497 -8.41921,-5.6197 -9.42391,-16.3626 -2.93179,-23.44475 7.28319,-7.9451 21.08665,-8.87005 30.15569,-2.65494 10.06836,6.89995 11.2159,19.88695 3.24591,28.39468"
       id="path6463"
       style="fill:none;fill-opacity:1;fill-rule:evenodd;stroke:#00ff76;stroke-width:3.26888967;stroke-miterlimit:4;stroke-dasharray:none;stroke-opacity:1"
       inkscape:connector-curvature="0" />
    <path
       d="m 201.1383,-155.3761 c 0.45674,0.59563 -0.70879,0.82305 -1.15178,0.6525 -1.20049,-0.46222 -1.07163,-1.88278 -0.36647,-2.63248 1.26135,-1.34102 3.6474,-1.10279 4.97359,0.0226 1.94623,1.65142 1.50517,4.4057 -0.41883,5.91743 -2.56438,2.01491 -6.61182,1.48884 -8.79541,-0.69749 -2.74782,-2.75126 -1.9617,-6.96365 1.20413,-9.20238 3.83423,-2.71143 9.59371,-1.88473 12.61723,1.37247 3.5631,3.83849 2.4247,9.52965 -1.98943,12.48736 -5.0963,3.41477 -12.5813,2.28405 -16.43905,-2.04746 -4.38341,-4.92175 -2.89035,-12.09888 2.77474,-15.77234 6.35537,-4.12104 15.57147,-2.68492 20.26085,2.72246 5.2061,6.00322 3.35732,14.66971 -3.56002,19.05728"
       id="path6465"
       style="fill:none;fill-opacity:1;fill-rule:evenodd;stroke:#00ff76;stroke-width:3.26888967;stroke-miterlimit:4;stroke-dasharray:none;stroke-opacity:1"
       inkscape:connector-curvature="0" />
    <path
       d="m 95.587356,-125.92763 c 0.77173,0.51441 -0.426021,1.14794 -0.994727,1.10249 -1.541197,-0.12318 -2.024967,-1.74743 -1.570615,-2.81247 0.812735,-1.90511 3.575482,-2.41819 5.549482,-1.59748 2.896934,1.20441 3.621894,4.416 2.146514,6.72741 -1.966464,3.08077 -6.706765,3.81524 -10.104257,2.0925 -4.275387,-2.16791 -5.259889,-7.1161 -2.7224,-10.64239 3.073243,-4.27079 9.853163,-5.22896 14.659017,-2.58748 5.66353,3.11289 6.90869,9.82304 3.2983,14.55733 -4.16834,5.46593 -13.004377,6.64837 -19.213786,3.0825 -7.055524,-4.0518 -8.561817,-12.53271 -3.874189,-18.4723 5.25881,-6.66332 16.157781,-8.07036 23.768545,-3.57748 8.44939,4.98795 10.21712,15.24373 4.45009,22.38724"
       id="path6467"
       style="fill:none;fill-opacity:1;fill-rule:evenodd;stroke:#00ff76;stroke-width:3.26888967;stroke-miterlimit:4;stroke-dasharray:none;stroke-opacity:1"
       inkscape:connector-curvature="0" />
    <path
       d="m 69.835408,-104.88667 c 0.834726,0.40612 -0.225078,1.16751 -0.785305,1.19249 -1.518177,0.0676 -2.255718,-1.4521 -1.989436,-2.54247 0.47632,-1.95044 3.077014,-2.78507 5.130657,-2.22747 3.01381,0.81829 4.24704,3.85151 3.193566,6.27743 -1.404112,3.233358 -5.890384,4.523668 -9.476011,3.262458 -4.512143,-1.587078 -6.283475,-6.276578 -4.397691,-10.012388 2.283932,-4.52458 8.715701,-6.28031 13.821362,-4.29745 6.016842,2.33673 8.331523,8.70699 5.601823,13.747348 -3.151549,5.8193 -11.544765,8.04303 -18.166716,5.33243 -7.524279,-3.07999 -10.384246,-11.139498 -6.805952,-17.482298 4.014299,-7.11568 14.375537,-9.80858 22.512066,-6.36743 9.03309,3.82035 12.439299,13.57309 8.010084,21.217278"
       id="path6469"
       style="fill:none;fill-rule:evenodd;stroke:#00ff76;stroke-width:3.26888967;stroke-miterlimit:4;stroke-dasharray:none;stroke-opacity:1"
       inkscape:connector-curvature="0" />
    <path
       d="m 129.07601,-127.8802 c 0.59204,0.34978 -0.25645,0.85853 -0.67634,0.8458 -1.13794,-0.0346 -1.57305,-1.20981 -1.2917,-2.0085 0.50327,-1.42862 2.50703,-1.90573 3.99709,-1.37468 2.18672,0.77937 2.87695,3.11166 1.90702,4.86276 -1.29279,2.33392 -4.73802,3.04544 -7.31783,1.90359 -3.24642,-1.43692 -4.21262,-5.03517 -2.52235,-7.71703 2.04715,-3.24809 6.9793,-4.19793 10.63857,-2.43248 4.31233,2.08051 5.55652,6.9633 3.13767,10.5713 -2.79265,4.16556 -9.22381,5.35474 -13.95929,2.96137 -5.38076,-2.71951 -6.90376,-8.8933 -3.75301,-13.42557 3.53466,-5.08452 11.46984,-6.51357 17.28003,-3.49028 6.45043,3.35645 8.25267,10.82421 4.36834,16.27984"
       id="path6471"
       style="fill:none;fill-opacity:1;fill-rule:evenodd;stroke:#00ff76;stroke-width:3.26888967;stroke-miterlimit:4;stroke-dasharray:none;stroke-opacity:1"
       inkscape:connector-curvature="0" />
    <path
       d="m 128.8903,-188.04572 c 0.59849,0.6904 -0.78745,1.03404 -1.33502,0.85499 -1.48382,-0.48521 -1.44344,-2.20454 -0.65442,-3.14997 1.41137,-1.69113 4.30558,-1.54664 5.99448,-0.26999 2.47855,1.87352 2.16981,5.2185 -0.0262,7.15492 -2.92689,2.58093 -7.84618,2.18885 -10.65396,-0.31499 -3.53331,-3.15084 -2.92671,-8.2733 0.70676,-11.15987 4.40061,-3.49603 11.40705,-2.844 15.31344,0.89997 4.60353,4.41214 3.69207,11.33742 -1.38736,15.16483 -5.86441,4.41889 -14.97448,3.5036 -19.97291,-1.48496 -5.67953,-5.66834 -4.46088,-14.40524 2.06795,-19.16979 7.32436,-5.34509 18.54493,-4.16526 24.63239,2.06996 6.75822,6.92226 5.23138,17.47491 -2.74855,23.17474"
       id="path6473"
       style="fill:none;fill-opacity:1;fill-rule:evenodd;stroke:#00ff76;stroke-width:3.26888967;stroke-miterlimit:4;stroke-dasharray:none;stroke-opacity:1"
       inkscape:connector-curvature="0" />
    <path
       d="m 161.32313,-117.03779 c 0.86564,0.61584 -0.53874,1.3068 -1.19086,1.23665 -1.7672,-0.19008 -2.25449,-2.07323 -1.68666,-3.2838 1.01569,-2.16542 4.21478,-2.66869 6.45007,-1.66282 3.28037,1.47613 3.97754,5.19238 2.18248,7.80426 -2.39249,3.48122 -7.8753,4.17698 -11.7093,2.08899 -4.82469,-2.62749 -5.74648,-8.34907 -2.67829,-12.32472 3.71597,-4.81506 11.55391,-5.70397 16.96852,-2.51517 6.38093,3.7579 7.52754,11.51397 3.17411,16.84519 -5.0262,6.1551 -15.23832,7.23734 -22.22775,2.94133 -7.94185,-4.88139 -9.31349,-14.68213 -3.66993,-21.36565 6.33121,-7.49787 18.92535,-8.77362 27.48699,-3.3675 9.50504,6.00182 11.10187,17.85196 4.16575,25.88611"
       id="path6475"
       style="fill:none;fill-opacity:1;fill-rule:evenodd;stroke:#00ff76;stroke-width:3.26888967;stroke-miterlimit:4;stroke-dasharray:none;stroke-opacity:1"
       inkscape:connector-curvature="0" />
    <path
       d="m 213.07493,-124.86642 c 0.75597,0.5821 -0.53992,1.16308 -1.12559,1.07999 -1.58717,-0.2252 -1.9496,-1.93961 -1.38737,-3.01497 1.00566,-1.92355 3.91366,-2.28065 5.88978,-1.30499 2.90003,1.43186 3.37655,4.80709 1.64913,7.10993 -2.30238,3.06931 -7.27941,3.53085 -10.65396,1.52998 -4.24654,-2.51788 -4.84341,-7.70981 -1.9109,-11.20487 3.55165,-4.233 10.66225,-4.79736 15.41815,-1.75499 5.60464,3.58534 6.32086,10.62034 2.17265,15.29984 -4.78924,5.40266 -14.05056,6.06946 -20.18232,1.97996 -6.96729,-4.64672 -7.80259,-13.53393 -2.43444,-19.39478 6.02227,-6.57496 17.44139,-7.34407 24.94652,-2.20496 8.33211,5.70541 9.28643,16.44911 2.69619,23.48974"
       id="path6477"
       style="fill:none;fill-opacity:1;fill-rule:evenodd;stroke:#00ff76;stroke-width:3.26888967;stroke-miterlimit:4;stroke-dasharray:none;stroke-opacity:1"
       inkscape:connector-curvature="0" />
    <path
       d="m 29.611515,-114.05304 c 0.83472,0.40613 -0.225085,1.16751 -0.785311,1.19249 -1.518177,0.0676 -2.255721,-1.45211 -1.98943,-2.54248 0.476313,-1.95041 3.077006,-2.78506 5.130652,-2.22747 3.013807,0.8183 4.24704,3.85153 3.193566,6.27743 -1.404111,3.23337 -5.890381,4.52366 -9.47601,3.26246 -4.512145,-1.58709 -6.283478,-6.27657 -4.39769,-10.01239 2.283929,-4.52457 8.715696,-6.28029 13.821359,-4.29744 6.016844,2.33673 8.331526,8.70698 5.601821,13.74736 -3.151546,5.8193 -11.544759,8.04304 -18.166713,5.33242 -7.524275,-3.07997 -10.38424,-11.13952 -6.80595,-17.48232 4.014303,-7.11565 14.375533,-9.80858 22.512064,-6.36741 9.03309,3.82034 12.4393,13.5731 8.010082,21.21728"
       id="path6469-8"
       style="fill:none;fill-opacity:1;fill-rule:evenodd;stroke:#00ff76;stroke-width:3.26888967;stroke-miterlimit:4;stroke-dasharray:none;stroke-opacity:1"
       inkscape:connector-curvature="0" />
    <path
       d="m 173.37989,-141.79593 c 0.45674,0.59564 -0.70879,0.82306 -1.15177,0.6525 -1.20049,-0.46223 -1.07164,-1.8828 -0.36648,-2.63248 1.26136,-1.34101 3.64741,-1.1028 4.97359,0.0225 1.94625,1.65141 1.50517,4.4057 -0.41883,5.91744 -2.56437,2.01489 -6.61182,1.48883 -8.79541,-0.6975 -2.7478,-2.75126 -1.96168,-6.96365 1.20414,-9.20238 3.83423,-2.71143 9.5937,-1.88473 12.61722,1.37246 3.5631,3.8385 2.42472,9.52966 -1.98942,12.48737 -5.0963,3.41478 -12.58131,2.28405 -16.43905,-2.04747 -4.38341,-4.92173 -2.89036,-12.09887 2.77473,-15.77233 6.35538,-4.12105 15.57147,-2.68492 20.26086,2.72246 5.2061,6.00322 3.35732,14.66971 -3.56003,19.05729"
       id="path6465-8"
       style="fill:none;fill-opacity:1;fill-rule:evenodd;stroke:#00ff76;stroke-width:3.26888967;stroke-miterlimit:4;stroke-dasharray:none;stroke-opacity:1"
       inkscape:connector-curvature="0" />
    <path
       d="m 194.37416,-106.3878 c 0.36945,0.43159 -0.57332,0.59639 -0.93164,0.47279 -0.97104,-0.33492 -0.86681,-1.36425 -0.29643,-1.90746 1.02027,-0.97169 2.9503,-0.79909 4.02302,0.0163 1.57426,1.1966 1.21749,3.19234 -0.33877,4.28773 -2.07428,1.45997 -5.34815,1.07879 -7.11441,-0.50539 -2.22265,-1.99355 -1.58676,-5.04582 0.97399,-6.66799 3.10142,-1.96467 7.76012,-1.36565 10.20578,0.99448 2.88211,2.78135 1.96129,6.90512 -1.6092,9.04825 -4.12227,2.474318 -10.17672,1.654998 -13.29716,-1.48359 -3.54563,-3.56625 -2.33793,-8.76674 2.24441,-11.42849 5.14072,-2.98608 12.5954,-1.94548 16.38853,1.97268 4.21109,4.34988 2.71566,10.62954 -2.87961,13.808748"
       id="path6465-8-8"
       style="fill:none;fill-opacity:1;fill-rule:evenodd;stroke:#00ff76;stroke-width:2.5025804;stroke-miterlimit:4;stroke-dasharray:none;stroke-opacity:1"
       inkscape:connector-curvature="0" />
    <path
       d="m 94.797573,-148.37233 c 0.369458,0.43159 -0.57332,0.59639 -0.931651,0.47279 -0.971031,-0.33492 -0.866803,-1.36425 -0.296423,-1.90746 1.020282,-0.97169 2.950297,-0.79909 4.023027,0.0163 1.57425,1.1966 1.21749,3.19234 -0.33878,4.28772 -2.074262,1.45998 -5.348158,1.07881 -7.114407,-0.50538 -2.222644,-1.99355 -1.586766,-5.04582 0.973991,-6.66799 3.10141,-1.96467 7.760136,-1.36565 10.20578,0.99448 2.88211,2.78135 1.9613,6.90512 -1.609204,9.04824 -4.12227,2.47433 -10.176714,1.65501 -13.297155,-1.48358 -3.545635,-3.56625 -2.337939,-8.76674 2.244415,-11.42849 5.140713,-2.98608 12.595404,-1.94548 16.388544,1.97267 4.21108,4.34989 2.71565,10.62955 -2.87964,13.80876"
       id="path6465-8-8-2"
       style="fill:none;fill-opacity:1;fill-rule:evenodd;stroke:#00ff76;stroke-width:2.5025804;stroke-miterlimit:4;stroke-dasharray:none;stroke-opacity:1"
       inkscape:connector-curvature="0" />
  </g>
</svg>
