<?xml version="1.0" encoding="UTF-8" standalone="no"?>
<svg
   xmlns:dc="http://purl.org/dc/elements/1.1/"
   xmlns:cc="http://creativecommons.org/ns#"
   xmlns:rdf="http://www.w3.org/1999/02/22-rdf-syntax-ns#"
   xmlns:svg="http://www.w3.org/2000/svg"
   xmlns="http://www.w3.org/2000/svg"
   xmlns:sodipodi="http://sodipodi.sourceforge.net/DTD/sodipodi-0.dtd"
   xmlns:inkscape="http://www.inkscape.org/namespaces/inkscape"
   id="svg5877"
   version="1.1"
   viewBox="0 0 208.2166 175.4771"
   height="175.4771mm"
   width="208.2166mm"
   sodipodi:docname="oive.svg"
   inkscape:version="0.92.4 (5da689c313, 2019-01-14)">
  <sodipodi:namedview
     pagecolor="#ffffff"
     bordercolor="#666666"
     borderopacity="1"
     objecttolerance="10"
     gridtolerance="10"
     guidetolerance="10"
     inkscape:pageopacity="0"
     inkscape:pageshadow="2"
     inkscape:window-width="1920"
     inkscape:window-height="1001"
     id="namedview7627"
     showgrid="false"
     inkscape:zoom="0.5946522"
     inkscape:cx="-277.52369"
     inkscape:cy="401.5868"
     inkscape:window-x="-9"
     inkscape:window-y="-9"
     inkscape:window-maximized="1"
     inkscape:current-layer="svg5877" />
  <defs
     id="defs5871" />
  <metadata
     id="metadata5874">
    <rdf:RDF>
      <cc:Work
         rdf:about="">
        <dc:format>image/svg+xml</dc:format>
        <dc:type
           rdf:resource="http://purl.org/dc/dcmitype/StillImage" />
        <dc:title />
      </cc:Work>
    </rdf:RDF>
  </metadata>
  <g
     id="layer1"
     transform="matrix(1.8150064,0,0,1.7030391,-83.744583,-153.84873)">
    <path
       d="m 93.047362,142.27148 c 0.783176,0.11248 1.554187,0.26658 2.321672,0.44426 0.591549,0.12956 1.104835,0.39314 1.573893,0.7291 0.338195,0.26443 0.679171,0.52537 1.019807,0.78742 0.314566,0.25019 0.644193,0.48428 0.968164,0.72482 0.291673,0.20641 0.566527,0.42932 0.857117,0.63705 0.246385,0.20049 0.461755,0.42973 0.709675,0.62819 0.24008,0.21569 0.51374,0.39555 0.76494,0.60066 0.29845,0.20291 0.5487,0.45553 0.8056,0.69766 0.29876,0.273 0.6313,0.50706 0.95588,0.7543 0.34949,0.2459 0.62109,0.55953 0.93144,0.83984 0.24838,0.26618 0.5298,0.50348 0.79419,0.7563 0.33375,0.23478 0.52864,0.5727 0.72897,0.89769 0.21517,0.39306 0.438,0.78152 0.67406,1.16486 0.16384,0.27988 0.42552,0.49786 0.65595,0.7333 0.28814,0.27791 0.43858,0.63434 0.57789,0.98464 0.15932,0.34607 0.27481,0.70275 0.33765,1.072 0.0426,0.38441 0.0387,0.77148 0.04,1.15733 5e-5,0.39516 -6e-4,0.79033 -0.004,1.18548 -0.0379,0.47129 -0.099,0.9405 -0.131,1.41227 -0.0358,0.43965 -0.0163,0.88097 -0.0473,1.32056 -0.0241,0.38937 -0.18744,0.75126 -0.36717,1.1019 -0.15019,0.31426 -0.37038,0.59557 -0.60728,0.8625 -0.25002,0.26402 -0.53322,0.50241 -0.81606,0.73853 -0.3166,0.29997 -0.68019,0.55484 -1.03528,0.8171 -0.28558,0.20528 -0.57231,0.413 -0.82664,0.64894 -0.23953,0.23624 -0.51749,0.43664 -0.80958,0.61899 -1.34603,0.73234 -4.505594,2.28401 -0.45514,0.24395 0.0538,-0.0271 -0.10459,0.0585 -0.15587,0.0892 -0.1422,0.085 -0.14993,0.0939 -0.28354,0.18731 -0.26504,0.16781 -0.5278,0.33728 -0.79652,0.50048 -7.341811,3.74301 1.33101,-0.69006 -0.3892,0.20285 -0.73321,0.3806 -1.484135,0.73526 -2.201861,1.13839 -0.623567,0.35025 1.277191,-0.65656 1.919171,-0.9796 0.0497,-0.025 -0.0945,0.0568 -0.14179,0.0852 -0.30994,0.21165 -0.620357,0.42242 -0.92709,0.63775 -0.986929,0.6911 -2.137772,1.16488 -3.264988,1.64596 -0.341678,0.14868 -0.682458,0.2731 -1.058335,0.33234 -0.328099,0.0407 -0.660167,0.0397 -0.99073,0.0404 -0.316467,-0.038 -0.617369,-0.14012 -0.905412,-0.25968 -0.0542,-0.0246 -0.110178,-0.0462 -0.162589,-0.0737 -0.436255,-0.22842 0.100081,0.0288 -0.313718,-0.18008 -0.141536,-0.0714 -0.293105,-0.11724 -0.436382,-0.1859 -0.230131,-0.18546 -0.53175,-0.22049 -0.806013,-0.32026 -0.237523,-0.096 -0.335348,-0.23613 -0.394,-0.45296 0,0 2.133148,-0.99894 2.133148,-0.99894 v 0 c -0.0058,0.1543 0.108446,0.20386 0.262203,0.25675 0.290937,0.0849 0.568597,0.18419 0.820489,0.34297 0.307347,0.13428 0.596455,0.29368 0.903532,0.42687 0.273542,0.0948 0.54625,0.19626 0.846441,0.18774 0.321253,-0.005 0.645137,-0.0107 0.959574,-0.0758 0.356206,-0.0859 0.685494,-0.22882 1.02037,-0.36455 0.127358,-0.0508 0.266859,-0.10564 0.392532,-0.15956 0.06984,-0.03 0.274811,-0.12753 0.208136,-0.0924 -3.343111,1.76344 -2.111145,1.1504 -1.441929,0.71907 0.311248,-0.20611 0.609953,-0.42849 0.917259,-0.63848 0.800036,-0.57181 0.02518,-0.0278 2.332062,-1.23668 0.63564,-0.3331 -1.270743,0.66712 -1.912436,0.99096 -0.04419,0.0223 0.07441,-0.0626 0.118227,-0.0855 0.726209,-0.37938 1.449819,-0.76335 2.190239,-1.12048 0.65111,-0.31405 -1.281479,0.6608 -1.922219,0.9912 0.282887,-0.14756 0.531063,-0.32815 0.806097,-0.48387 0.189982,-0.12512 0.0969,-0.0579 0.278602,-0.20235 0.71888,-0.49426 1.57098,-0.8137 2.35199,-1.22725 0.62846,-0.33278 -1.26479,0.65375 -1.89885,0.97807 -0.0532,0.0272 0.10403,-0.0577 0.15604,-0.0866 0.30639,-0.15453 0.57627,-0.35092 0.83251,-0.56494 0.24517,-0.25443 0.52664,-0.47454 0.82057,-0.68396 0.36249,-0.24666 0.72069,-0.50554 1.04062,-0.79506 0.26778,-0.24541 0.56381,-0.4661 0.82449,-0.71749 0.24142,-0.24971 0.4696,-0.51534 0.63565,-0.80995 0.16202,-0.33812 0.37361,-0.66603 0.40566,-1.04118 0.0563,-0.43663 0.0154,-0.87829 0.0518,-1.31663 0.034,-0.46771 0.085,-0.93385 0.13652,-1.40026 -0.002,-0.39466 4.8e-4,-0.78931 0.002,-1.18397 3.1e-4,-0.37632 0.004,-0.75352 -0.0323,-1.1288 -0.0482,-0.35835 -0.14904,-0.70548 -0.30494,-1.0397 -0.12514,-0.3275 -0.27489,-0.65137 -0.54563,-0.90745 -0.2413,-0.24736 -0.50376,-0.48472 -0.67381,-0.77845 -0.2303,-0.38501 -0.45015,-0.77354 -0.66325,-1.16643 -0.19924,-0.3087 -0.40087,-0.61599 -0.71418,-0.8463 -0.26392,-0.25071 -0.53668,-0.4935 -0.78443,-0.75738 -0.29928,-0.28114 -0.581,-0.57736 -0.92331,-0.82001 -0.33079,-0.24978 -0.65944,-0.49804 -0.96397,-0.77358 -0.261159,-0.2332 -0.511983,-0.47751 -0.803293,-0.68208 -0.256534,-0.2017 -0.528798,-0.38585 -0.770841,-0.60188 -0.23589,-0.20251 -0.45449,-0.42072 -0.698121,-0.61637 -0.289944,-0.20889 -0.562051,-0.43609 -0.855005,-0.64188 -0.326144,-0.24006 -0.650106,-0.48225 -0.970141,-0.72856 -0.338025,-0.25963 -0.667933,-0.52693 -1.009523,-0.78283 -0.44723,-0.31196 -0.938676,-0.54779 -1.495625,-0.67008 -0.768548,-0.1832 -1.546154,-0.3259 -2.338822,-0.39888 0,0 1.967253,-1.23445 1.967253,-1.23445 z"
       id="path6433"
       style="opacity:1;fill:#070707;fill-opacity:1;stroke:#000000;stroke-width:0.05895469;stroke-linecap:round;stroke-linejoin:round;stroke-miterlimit:4;stroke-dasharray:none;stroke-dashoffset:0;stroke-opacity:1"
       inkscape:connector-curvature="0" />
    <path
       d="m 97.10393,137.69574 c 0.407516,0.61033 0.763772,1.24627 1.101868,1.88864 0.294542,0.55255 0.582341,1.10533 0.924499,1.63614 0.260971,0.39551 0.537026,0.78959 0.855933,1.15101 0.22422,0.30449 0.46142,0.60247 0.71241,0.89013 0.2391,0.25401 0.50054,0.4903 0.71744,0.75992 0.27105,0.2759 0.50061,0.57887 0.7691,0.85658 0.23769,0.26179 0.47114,0.53217 0.74645,0.76421 0.24175,0.20475 0.47843,0.41557 0.70252,0.63596 0.28721,0.2128 0.48652,0.49601 0.68348,0.77374 0.26919,0.35775 0.53656,0.71582 0.77325,1.09142 0.23941,0.44283 0.50839,0.87102 0.79132,1.29293 0.32304,0.4631 0.58227,0.95465 0.80705,1.46027 0.30383,0.6051 0.63404,1.19926 0.9678,1.79169 0.31565,0.53994 0.57174,1.10332 0.82817,1.66646 0.21153,0.47024 0.46416,0.92894 0.77383,1.35476 0.25908,0.40247 0.50025,0.81202 0.70604,1.23802 0.20035,0.35427 0.40488,0.70817 0.56372,1.07903 0.12436,0.38105 0.18489,0.77831 0.2462,1.17093 0.0721,0.42741 0.0679,0.85602 0.0275,1.28519 -0.087,0.57717 -0.28981,1.1345 -0.49165,1.68663 -0.19017,0.54549 -0.4844,1.05111 -0.81947,1.53593 -0.21244,0.2739 -0.44987,0.53224 -0.71724,0.76525 -0.24945,0.23396 -0.5449,0.42237 -0.81525,0.63666 -0.28683,0.22417 -0.56284,0.45759 -0.83771,0.69306 -0.24057,0.2021 -0.48103,0.40462 -0.70873,0.61824 -0.25574,0.26677 -0.55682,0.49086 -0.85638,0.71684 -0.29266,0.22047 -0.63011,0.38891 -0.96048,0.56058 -0.97261,0.64133 -2.05781,1.11361 -3.11517,1.64611 -0.37169,0.23187 -0.81748,0.2769 -1.24428,0.37232 -0.394604,0.0956 -0.801298,0.12047 -1.207824,0.13695 -0.358366,0.0115 -0.717029,0.0107 -1.075569,0.0103 -0.593827,-0.0873 -0.411477,-0.58485 -0.289605,-0.9468 0,0 2.143765,-0.89465 2.143765,-0.89465 v 0 c -0.02,0.0501 -0.249386,0.45359 -0.13227,0.55398 0.03854,0.033 0.194737,0.0309 0.22646,0.0324 0.354393,-7e-5 0.709033,6e-5 1.063003,-0.0175 0.39862,-0.0245 0.79343,-0.0729 1.18003,-0.16544 0.42603,-0.0848 0.83203,-0.20379 1.20662,-0.40897 -0.61271,0.31679 -1.22441,0.63509 -1.83812,0.95035 -0.0664,0.0341 0.12995,-0.0724 0.19609,-0.10686 0.12118,-0.0631 0.25634,-0.10544 0.37133,-0.17709 0.10003,-0.0623 0.16255,-0.16513 0.27228,-0.21794 0.32541,-0.177 0.66287,-0.33735 0.97824,-0.5277 0.29258,-0.22604 0.60879,-0.4294 0.86092,-0.69307 0.22767,-0.22012 0.46436,-0.42637 0.70179,-0.63766 0.29648,-0.21378 0.54007,-0.48104 0.8414,-0.69065 0.17759,-0.14817 0.35475,-0.30793 0.5537,-0.43403 0.0469,-0.0297 0.10217,-0.0487 0.1467,-0.0811 0.0434,-0.0316 0.0765,-0.0728 0.11482,-0.10923 0.25484,-0.23931 0.5267,-0.46314 0.74951,-0.72983 0.3525,-0.46788 0.66776,-0.95702 0.86604,-1.49471 0.19316,-0.53847 0.38899,-1.07953 0.49775,-1.63727 0.0446,-0.41434 0.0522,-0.82705 -0.01,-1.2411 -0.0519,-0.37852 -0.12117,-0.75649 -0.22798,-1.12586 -0.14764,-0.37058 -0.34913,-0.72276 -0.54126,-1.07633 -0.20451,-0.41465 -0.44392,-0.81208 -0.69554,-1.20581 -0.30757,-0.44253 -0.56311,-0.91335 -0.78045,-1.39587 -0.24931,-0.56047 -0.51083,-1.11542 -0.81877,-1.65322 -0.32353,-0.60274 -0.66298,-1.19885 -0.97631,-1.80588 -0.22274,-0.49491 -0.48197,-0.97334 -0.80385,-1.42459 -0.27844,-0.42589 -0.54361,-0.85799 -0.79027,-1.29909 -0.23332,-0.37327 -0.51084,-0.72096 -0.77864,-1.07514 -0.19164,-0.26835 -0.38896,-0.53239 -0.66595,-0.73928 -0.22393,-0.21554 -0.45509,-0.42594 -0.6953,-0.62705 -0.26944,-0.24546 -0.51114,-0.51436 -0.74824,-0.78441 -0.270312,-0.28339 -0.515731,-0.58414 -0.785,-0.86828 -0.218323,-0.26596 -0.482498,-0.49909 -0.714163,-0.75583 -0.244038,-0.29219 -0.487638,-0.58505 -0.707903,-0.89194 -0.314162,-0.37654 -0.59583,-0.7762 -0.861014,-1.1809 -0.343828,-0.53738 -0.619535,-1.1016 -0.911301,-1.66212 -0.333491,-0.62903 -0.672477,-1.26202 -1.121388,-1.83412 0,0 2.073889,-1.08549 2.073889,-1.08549 z"
       id="path6435"
       style="opacity:1;fill:#070707;fill-opacity:1;stroke:#000000;stroke-width:0.05895469;stroke-linecap:round;stroke-linejoin:round;stroke-miterlimit:4;stroke-dasharray:none;stroke-dashoffset:0;stroke-opacity:1"
       inkscape:connector-curvature="0" />
    <path
       d="m 106.46343,131.18016 c -0.0289,0.91411 -0.0434,1.82932 -0.0133,2.74346 0.0326,0.98335 0.10186,1.96135 0.24622,2.93662 0.12433,0.8371 0.39529,1.64828 0.64678,2.46035 0.2515,0.71543 0.51797,1.42466 0.73554,2.14892 0.16458,0.5743 0.31769,1.15163 0.39907,1.74018 0.0617,0.61509 0.0758,1.23081 0.17308,1.84307 0.10424,0.55437 0.20184,1.10998 0.2828,1.66745 0.0713,0.56256 0.0995,1.12878 0.12034,1.69435 0.0363,0.41003 0.10011,0.81746 0.13873,1.22733 0.0518,0.34523 0.24319,0.65853 0.3787,0.98321 0.14759,0.44158 0.31869,0.8767 0.45677,1.32068 0.0832,0.35572 0.1924,0.70666 0.31741,1.05251 0.13078,0.29942 0.24914,0.60113 0.41437,0.88737 0.1523,0.29537 0.34402,0.5734 0.46604,0.88032 0.15551,0.30852 0.20887,0.6349 0.23886,0.96849 0.0206,0.38436 0.0512,0.7703 0.0238,1.15482 -0.17904,1.21175 0.0232,0.53041 -2.25808,1.61618 -0.0356,-0.0261 -0.0712,-0.0523 -0.10688,-0.0785 0,0 2.02885,-1.17111 2.02885,-1.17111 v 0 c 0.0187,10e-4 0.0374,0.002 0.0562,0.003 -0.68411,0.34745 -1.37618,0.68286 -2.05232,1.04236 -0.0184,0.01 0.0428,0.025 0.0617,0.0161 0.0213,-0.0101 0.0219,-0.0384 0.0289,-0.0589 0.0463,-0.13683 0.0533,-0.28134 0.088,-0.42029 0.061,-0.37091 0.0105,-0.75042 0.003,-1.12363 -0.0283,-0.31528 -0.0717,-0.62599 -0.22309,-0.91667 -0.10774,-0.29966 -0.29455,-0.56947 -0.43902,-0.85567 -0.17669,-0.29555 -0.30595,-0.60492 -0.43993,-0.91699 -0.12416,-0.35042 -0.23416,-0.70519 -0.31193,-1.06634 -0.12804,-0.43903 -0.29992,-0.86656 -0.44868,-1.30029 -0.1488,-0.34158 -0.34749,-0.67273 -0.41484,-1.03547 -0.0301,-0.41502 -0.0854,-0.82758 -0.13674,-1.24086 -0.006,-0.56091 -0.0219,-1.12263 -0.0957,-1.68032 -0.0804,-0.55648 -0.18788,-1.10953 -0.28035,-1.66449 -0.10418,-0.61276 -0.12277,-1.23002 -0.17632,-1.84708 -0.0799,-0.58027 -0.22598,-1.15006 -0.37505,-1.71905 -0.21376,-0.72545 -0.471,-1.43687 -0.72581,-2.1517 -0.25068,-0.82257 -0.52569,-1.64303 -0.65359,-2.48972 -0.14039,-0.98357 -0.21475,-1.96915 -0.24295,-2.96054 -0.0363,-0.90691 -0.0149,-1.81447 -0.0521,-2.72141 0,0 2.14164,-0.96754 2.14164,-0.96754 z"
       id="path6437"
       style="opacity:1;fill:#070707;fill-opacity:1;stroke:#3f5116;stroke-width:0.05895469;stroke-linecap:round;stroke-linejoin:round;stroke-miterlimit:4;stroke-dasharray:none;stroke-dashoffset:0;stroke-opacity:0.88235294"
       inkscape:connector-curvature="0" />
    <path
       d="m 123.1414,136.96491 c -0.32111,0.58275 -0.62233,1.17335 -0.92527,1.76357 -0.30913,0.60834 -0.63486,1.21074 -0.91823,1.82897 -0.23468,0.54596 -0.47619,1.08961 -0.74093,1.62469 -0.24924,0.5491 -0.48818,1.10199 -0.71911,1.65736 -0.25524,0.56104 -0.44512,1.14219 -0.64967,1.71854 -0.18367,0.59104 -0.39635,1.17204 -0.6728,1.73406 -0.18876,0.42403 -0.42737,0.82872 -0.61545,1.25271 -0.17378,0.41216 -0.44665,0.78041 -0.65161,1.17985 -0.26237,0.57515 -0.54861,1.1412 -0.82497,1.711 -0.20789,0.44484 -0.47398,0.8648 -0.70782,1.29883 -0.21961,0.34548 -0.43527,0.69396 -0.66504,1.03445 -0.23659,0.33001 -0.41185,0.68804 -0.52253,1.06577 -0.11307,0.43557 -0.21403,0.87394 -0.30771,1.31316 -0.12104,0.4413 -0.20398,0.88787 -0.2497,1.33995 -0.0494,0.39061 -0.11812,0.77795 -0.24505,1.15488 -0.12435,0.2819 -0.2047,0.57278 -0.24592,0.87261 -0.0405,0.27894 -0.12939,0.54814 -0.22325,0.81573 -0.10707,0.28568 -0.21194,0.57221 -0.3309,0.8543 -0.15998,0.31282 -0.23171,0.64923 -0.38544,0.96434 -0.17295,0.38305 -0.43574,0.72355 -0.67253,1.07602 -0.21301,0.36873 -0.45434,0.72364 -0.67402,1.08911 -0.18949,0.31852 -0.3957,0.62987 -0.53763,0.96808 -0.13028,0.27521 -0.1996,0.5641 -0.26812,0.85453 -0.0925,0.25032 -0.1268,0.51239 -0.21592,0.76303 -0.1096,0.25652 -0.26991,0.48929 -0.38309,0.74459 -0.47772,1.10053 -0.71686,0.78581 -2.50278,1.65838 -0.0482,-0.0664 -0.0965,-0.13287 -0.14469,-0.1993 0,0 2.08227,-1.0823 2.08227,-1.0823 v 0 c 0.002,2.9e-4 0.004,4.3e-4 0.006,5.4e-4 -0.66611,0.34829 -1.33062,0.69898 -1.99832,1.04487 -0.036,0.0187 0.0746,-0.0358 0.10281,-0.0629 0.1277,-0.12281 0.18836,-0.31707 0.26564,-0.46394 0.0603,-0.12467 0.0992,-0.25585 0.16755,-0.37735 0.0225,-0.0401 0.0497,-0.078 0.0745,-0.11701 0.0275,-0.0369 0.0596,-0.0713 0.0827,-0.11053 0.0255,-0.0432 0.0415,-0.0903 0.0622,-0.13544 0.12408,-0.238 0.12875,-0.49539 0.22433,-0.7424 0.10781,-0.28324 0.10758,-0.59693 0.26712,-0.86846 0.121,-0.35545 0.32362,-0.67726 0.52782,-0.99999 0.2106,-0.37357 0.46818,-0.72296 0.67601,-1.09746 0.212,-0.35951 0.50312,-0.67994 0.67469,-1.05891 0.0411,-0.0741 0.13752,-0.24161 0.16936,-0.32296 0.0815,-0.20818 0.0886,-0.43758 0.21195,-0.63335 0.14689,-0.26588 0.20851,-0.5562 0.34419,-0.82629 0.0687,-0.26491 0.18891,-0.51549 0.23983,-0.78522 0.0311,-0.31397 0.0902,-0.62441 0.22761,-0.9174 0.15404,-0.35769 0.217,-0.7341 0.27653,-1.11197 0.0443,-0.45765 0.11063,-0.91356 0.24138,-1.35901 0.0905,-0.44158 0.19634,-0.88026 0.30045,-1.31937 0.0888,-0.40208 0.25662,-0.7779 0.48788,-1.13314 0.25172,-0.32323 0.42533,-0.68671 0.6747,-1.01148 0.24528,-0.4317 0.49805,-0.85945 0.7342,-1.29525 0.26107,-0.57315 0.57485,-1.12749 0.81545,-1.70893 0.18277,-0.40727 0.43697,-0.7743 0.64951,-1.16888 0.1757,-0.43411 0.42135,-0.83978 0.61516,-1.26776 0.29176,-0.55324 0.52688,-1.12128 0.6952,-1.71488 0.20178,-0.579 0.38559,-1.16404 0.64121,-1.72687 0.23187,-0.55765 0.47359,-1.1115 0.70909,-1.668 0.26886,-0.53395 0.51998,-1.07516 0.75542,-1.62129 0.27093,-0.62477 0.6058,-1.22571 0.90841,-1.83875 0.31113,-0.57878 0.6025,-1.16605 0.90135,-1.74975 0,0 2.18584,-0.88749 2.18584,-0.88749 z"
       id="path6439"
       style="opacity:1;fill:#070707;fill-opacity:1;stroke:#000000;stroke-width:0.05895469;stroke-linecap:round;stroke-linejoin:round;stroke-miterlimit:4;stroke-dasharray:none;stroke-dashoffset:0;stroke-opacity:1"
       inkscape:connector-curvature="0" />
    <path
       d="m 132.87516,139.82065 c -0.4302,0.31741 -0.85092,0.64482 -1.2728,0.97088 -1.0727,0.74873 -2.28359,1.3406 -3.52203,1.84665 -0.69957,0.24098 -1.35731,0.56277 -2.04015,0.83675 -0.79066,0.34803 -1.63336,0.57499 -2.47254,0.80858 -0.86603,0.23196 -1.70936,0.52373 -2.56028,0.79487 -0.76579,0.24384 -1.53673,0.46537 -2.27792,0.76489 -0.58303,0.28223 -1.21499,0.47885 -1.79168,0.76959 -0.76526,0.34207 -1.94732,0.95311 1.47788,-0.77349 0.0498,-0.0251 -0.0988,0.0516 -0.14635,0.0799 -0.0927,0.0553 -0.18803,0.12438 -0.27561,0.18568 -0.29788,0.16883 -0.51353,0.4065 -0.72103,0.65458 -0.25123,0.26914 -0.46505,0.55311 -0.60118,0.88152 -0.18131,0.44746 -0.23753,0.91882 -0.27565,1.38967 -0.0407,0.48008 -0.0109,0.9622 -0.0424,1.44229 -0.0252,0.37018 -0.14573,0.72567 -0.21616,1.08942 -0.0212,0.37303 -0.13154,0.72518 -0.24583,1.08167 -0.1408,0.34532 -0.2372,0.69748 -0.29011,1.0612 -0.0347,0.38246 -0.11235,0.76004 -0.15751,1.1416 -0.0489,0.51847 -0.0527,1.0394 -0.054,1.55938 -0.0305,0.46701 0.075,0.92208 0.18536,1.37505 0.0956,0.31931 0.25079,0.62254 0.41672,0.9174 0.11014,0.24515 0.20308,0.49314 0.33332,0.73083 0.12094,0.23814 0.22353,0.48216 0.34484,0.72001 0.0948,0.25538 0.2546,0.48203 0.41525,0.70741 0.19169,0.24479 0.35592,0.50228 0.46719,0.78366 0.11619,0.27312 0.25189,0.53972 0.39688,0.80175 0.1567,0.25571 0.35451,0.49093 0.57587,0.70524 0.20855,0.23383 0.43872,0.45046 0.6602,0.67484 0.26332,0.24918 0.50969,0.51129 0.78032,0.75418 0.27931,0.25336 0.56678,0.49617 0.87796,0.71825 0.30827,0.20968 0.59465,0.4426 0.89862,0.65639 0.29867,0.21365 0.58422,0.43892 0.88867,0.64609 0.31997,0.18044 0.62711,0.37718 0.96033,0.53839 0.27413,0.17796 0.58391,0.3147 0.84944,0.50272 0.21387,0.20822 0.47241,0.31189 0.77848,0.36202 0.31065,0.0362 0.62491,0.0325 0.93758,0.0323 0.32517,-0.001 0.65034,-0.003 0.97551,-0.004 0.20089,-0.0226 0.43056,0.0453 0.62254,-0.0303 0.0372,-0.0147 0.1352,-0.0803 0.0997,-0.0627 -0.66259,0.32911 -1.32094,0.66489 -1.98141,0.99734 0.10158,-0.0778 0.0624,-0.0274 0.10275,-0.15931 0,0 2.1624,-0.94734 2.1624,-0.94734 v 0 c -0.005,0.20276 0.003,0.10105 -0.0234,0.3051 -1.9325,1.00945 -1.55051,1.17008 -2.93103,1.15329 -0.32558,0.001 -0.65116,0.003 -0.97674,0.002 -0.32497,-0.003 -0.65333,-0.005 -0.97131,-0.0723 -0.32035,-0.0844 -0.5936,-0.22634 -0.83299,-0.43546 -0.26754,-0.17021 -0.55206,-0.32209 -0.82755,-0.48152 -0.33452,-0.17567 -0.65728,-0.36792 -0.97667,-0.56429 -0.30537,-0.20951 -0.59241,-0.43806 -0.89597,-0.64962 -0.29589,-0.22174 -0.58928,-0.44541 -0.89399,-0.6579 -0.31545,-0.22947 -0.60677,-0.48169 -0.89505,-0.73754 -0.27046,-0.24792 -0.5178,-0.51451 -0.78836,-0.76257 -0.22265,-0.22195 -0.44968,-0.44046 -0.65888,-0.67253 -0.23326,-0.23145 -0.4429,-0.48482 -0.61373,-0.75592 -0.14631,-0.27152 -0.2834,-0.54703 -0.40985,-0.82618 -0.0973,-0.26869 -0.25958,-0.50792 -0.44097,-0.7389 -0.16463,-0.23398 -0.33382,-0.46919 -0.43361,-0.73239 -0.11874,-0.23679 -0.22213,-0.47815 -0.34127,-0.71484 -0.12875,-0.23789 -0.23143,-0.48228 -0.33029,-0.73088 -0.17008,-0.31306 -0.32826,-0.63442 -0.43452,-0.9694 -0.10729,-0.46884 -0.23002,-0.93753 -0.19675,-1.42033 0.005,-0.52337 6e-4,-1.04706 0.0309,-1.56992 0.0351,-0.38371 0.11748,-0.7614 0.15484,-1.14422 0.0379,-0.37323 0.11051,-0.74275 0.27246,-1.09119 0.10507,-0.35273 0.25547,-0.69084 0.25946,-1.06169 0.0605,-0.36265 0.17133,-0.71288 0.2248,-1.07604 0.0626,-0.47813 0.0131,-0.96287 0.0551,-1.44286 0.0313,-0.48247 0.071,-0.96696 0.23426,-1.43126 0.11515,-0.35105 0.29042,-0.66817 0.56695,-0.94348 0.21172,-0.25132 0.39287,-0.5308 0.69242,-0.71031 0.14071,-0.089 0.26509,-0.21311 0.41375,-0.29025 0.87583,-0.45446 1.7328,-0.9079 2.6287,-1.31754 0.59263,-0.25933 1.19977,-0.493 1.79318,-0.75123 0.74361,-0.28231 1.5153,-0.49388 2.27325,-0.74307 0.85145,-0.274 1.69909,-0.55882 2.56742,-0.78909 0.83807,-0.23642 1.67139,-0.4845 2.46042,-0.83381 0.68247,-0.28497 1.35466,-0.58929 2.05084,-0.84809 0.75684,-0.3339 2.07,-1.0348 -1.21447,0.65507 -0.15303,0.0787 0.30162,-0.16458 0.44529,-0.25614 0.0699,-0.0445 0.13995,-0.0887 0.20992,-0.13311 0.42841,-0.31116 0.83664,-0.64358 1.25458,-0.96593 0,0 2.23567,-0.80011 2.23567,-0.80011 z"
       id="path6441"
       style="opacity:1;fill:#070707;fill-opacity:1;stroke:#000000;stroke-width:0.05895469;stroke-linecap:round;stroke-linejoin:round;stroke-miterlimit:4;stroke-dasharray:none;stroke-dashoffset:0;stroke-opacity:1"
       inkscape:connector-curvature="0" />
    <path
       d="m 113.9135,139.81091 c -0.17824,0.71254 -0.38517,1.41884 -0.58262,2.12733 -0.19871,0.65719 -0.30135,1.32931 -0.35431,2.00656 -0.0297,0.55848 -0.0277,1.11783 -0.0289,1.6768 -0.0313,0.57724 -0.094,1.15249 -0.12524,1.72976 -0.0215,0.4317 -0.0242,0.8638 -0.0241,1.29584 -0.0378,0.33421 0.0587,0.64376 0.15689,0.96168 0.0759,0.39666 0.17135,0.78741 0.28832,1.17613 0.11093,0.40578 0.21306,0.8136 0.28081,1.22695 0.0897,0.43217 0.15422,0.86783 0.25307,1.29842 0.10056,0.37735 0.13054,0.76338 0.14519,1.14955 0.0113,0.48665 0.008,0.97343 0.01,1.46015 0.0211,0.42863 -0.0109,0.85021 -0.12631,1.26668 -0.12644,0.29945 -0.2175,0.61113 -0.35337,0.90722 -0.17798,0.25641 -0.24385,0.54973 -0.33303,0.8357 -0.10542,0.30385 -0.28301,0.57944 -0.38551,0.88449 -0.084,0.29458 -0.22006,0.57394 -0.31465,0.86547 -0.081,0.27483 -0.0946,0.55927 -0.10374,0.8417 -0.006,0.26924 0.0573,0.53897 0.12068,0.80165 0.0932,0.30444 0.30989,0.54789 0.51716,0.7958 0.22526,0.19471 0.39904,0.43151 0.65783,0.59293 0.22323,0.16906 0.42703,0.35829 0.61151,0.56105 0.20349,0.2004 0.43335,0.36829 0.66501,0.54007 0.24752,0.13099 0.46594,0.29404 0.69872,0.44301 0.21477,0.1676 0.45857,0.30007 0.69167,0.44732 0.24304,0.18782 0.48464,0.38441 0.70667,0.59289 0.24305,0.15951 0.4537,0.35475 0.69042,0.52139 0.24242,0.17955 0.51007,0.32101 0.78451,0.45693 0.26096,0.10763 0.54097,0.18358 0.79278,0.30737 0.10652,0.039 0.36141,0.15625 0.47724,0.12944 0.0439,-0.0102 0.14811,-0.0928 0.10824,-0.0735 -0.64748,0.31366 -1.28825,0.63807 -1.93238,0.95711 0.34366,-0.19369 0.47694,-0.52712 0.61199,-0.84951 0,0 2.1508,-0.89462 2.1508,-0.89462 v 0 c -0.12043,0.34809 -0.2427,0.69668 -0.5152,0.97899 -1.37668,0.68505 -1.78201,1.45479 -2.91835,0.92824 -0.265,-0.10508 -0.5346,-0.20175 -0.79447,-0.31644 -0.28655,-0.13994 -0.55069,-0.31004 -0.80686,-0.49018 -0.23744,-0.17823 -0.4716,-0.36072 -0.70471,-0.5428 -0.21776,-0.19594 -0.44367,-0.39001 -0.68772,-0.55932 -0.23007,-0.15149 -0.48078,-0.27617 -0.69175,-0.44983 -0.23134,-0.15667 -0.47074,-0.30054 -0.70676,-0.45141 -0.24547,-0.17723 -0.47162,-0.37045 -0.68739,-0.57611 -0.17716,-0.18706 -0.37068,-0.3637 -0.58228,-0.52007 -0.25871,-0.18959 -0.46407,-0.42643 -0.69063,-0.64483 -0.22604,-0.27148 -0.44894,-0.545 -0.56506,-0.87163 -0.0784,-0.2757 -0.14227,-0.56484 -0.15065,-0.84855 0.006,-0.29648 0.0134,-0.59471 0.0799,-0.8864 0.0784,-0.2973 0.21393,-0.57487 0.31462,-0.86612 0.0817,-0.31412 0.23158,-0.59696 0.38566,-0.88686 0.0894,-0.29395 0.14331,-0.60546 0.31,-0.87377 0.18863,-0.26592 0.21481,-0.59096 0.38084,-0.86916 0.12861,-0.401 0.19879,-0.80293 0.16489,-1.22241 0.002,-0.48368 0.002,-0.96749 -0.011,-1.45104 -0.0154,-0.37486 -0.0385,-0.75039 -0.12859,-1.11815 -0.0972,-0.43539 -0.16042,-0.87497 -0.25638,-1.3107 -0.0629,-0.40586 -0.16851,-0.80345 -0.27013,-1.2027 -0.1181,-0.38768 -0.22256,-0.77621 -0.2928,-1.17328 -0.10163,-0.33502 -0.23372,-0.65936 -0.1863,-1.0129 0.005,-0.43717 0.0117,-0.87447 0.0348,-1.31122 0.0325,-0.57474 0.0907,-1.1474 0.13333,-1.72152 -0.002,-0.56382 -0.005,-1.12792 0.0278,-1.6912 0.0425,-0.69183 0.1455,-1.3784 0.35343,-2.048 0.1925,-0.69926 0.41397,-1.39464 0.53358,-2.10746 0,0 2.17299,-0.92297 2.17299,-0.92297 z"
       id="path6443"
       style="opacity:1;fill:#070707;fill-opacity:1;stroke:#000000;stroke-width:0.05895469;stroke-linecap:round;stroke-linejoin:round;stroke-miterlimit:4;stroke-dasharray:none;stroke-dashoffset:0;stroke-opacity:1"
       inkscape:connector-curvature="0" />
    <path
       d="m 101.9533,136.13041 c 0.26026,0.55575 0.52956,1.10791 0.75705,1.67512 0.18476,0.50892 0.44994,0.99032 0.67491,1.48527 0.16031,0.45282 0.35629,0.89027 0.6247,1.30116 0.20504,0.29994 0.43061,0.58548 0.61054,0.89883 0.12592,0.28013 0.32133,0.51019 0.52706,0.74544 0.20908,0.26741 0.37693,0.55342 0.49893,0.8598 0.0699,0.34752 0.28223,0.64433 0.43157,0.96504 0.16806,0.31511 0.29472,0.64816 0.40855,0.98161 0.071,0.29183 0.26424,0.52888 0.41723,0.78754 0.16519,0.29064 0.31031,0.59079 0.49834,0.8712 0.19251,0.23797 0.35713,0.49158 0.53475,0.73832 0.18335,0.24732 0.2974,0.52538 0.45117,0.78618 0.17331,0.26723 0.35266,0.52732 0.54529,0.78368 0.21859,0.25014 0.39723,0.52035 0.55301,0.80445 0.1593,0.32701 0.18298,0.68731 0.29588,1.02684 0.10569,0.35572 0.20258,0.71386 0.29548,1.07263 0.08,0.31413 0.10578,0.63538 0.11968,0.95626 -0.0157,0.28298 0.0495,0.55866 0.0961,0.83673 0.0489,0.32245 0.0491,0.64673 0.10475,0.96844 0.0715,0.28677 0.17196,0.56417 0.31941,0.82712 0.13236,0.26138 0.25559,0.5257 0.43322,0.76626 0.17582,0.23579 0.28889,0.50411 0.3853,0.77218 0.12665,0.27869 0.20648,0.56766 0.25264,0.86456 0.0332,0.29478 0.0504,0.59219 0.0273,0.88792 -0.0478,0.30015 -0.24657,0.54479 -0.42738,0.79261 -0.20141,0.2607 -0.43788,0.50209 -0.69841,0.71762 -0.28595,0.21512 -0.59201,0.40794 -0.87211,0.6291 -0.26087,0.20493 -0.48057,0.44639 -0.72437,0.66672 -0.23815,0.20185 -0.46304,0.41623 -0.71587,0.60395 -0.24661,0.14299 -0.48781,0.29506 -0.70419,0.47282 -0.23769,0.19535 -0.43981,0.42053 -0.67204,0.62122 -0.20434,0.19214 -0.45853,0.3329 -0.7023,0.4816 -0.31641,0.18277 -0.55443,0.44037 -0.80677,0.68415 -0.21625,0.20284 -0.41435,0.4212 -0.61251,0.63823 -0.20803,0.1959 -0.43983,0.37251 -0.67158,0.54628 -0.1833,0.19392 -0.37365,0.37496 -0.58122,0.54886 -0.20136,0.1703 -0.35924,0.36749 -0.52477,0.56378 -0.16711,0.19585 -0.39001,0.33423 -0.60966,0.47742 -0.18928,0.17144 -0.39969,0.32311 -0.61495,0.46787 -0.86784,0.6259 -1.82454,1.01182 -2.83012,1.51292 -0.30574,0.0666 -0.622586,0.0669 -0.935474,0.0698 -0.325036,5.4e-4 -0.650068,-0.002 -0.975099,-0.003 -0.280472,-0.0621 -0.562782,-0.10621 -0.850761,-0.1276 -0.31184,-0.0181 -0.624533,-0.0181 -0.936896,-0.0189 -0.329044,-0.016 -0.64418,0.004 -0.953715,0.10681 -0.346777,0.11833 -0.718614,0.14499 -1.085907,0.16778 -0.350603,0.006 -0.706151,0.0437 -1.052959,-0.0109 -0.333852,-0.0909 -0.408026,-0.35609 -0.456312,-0.62954 0,0 2.122842,-0.98476 2.122842,-0.98476 v 0 c 0.009,0.20094 0.04237,0.3542 0.298007,0.3791 0.340398,0.0141 0.681912,4.3e-4 1.021534,-0.0222 0.362036,-0.0339 0.7163,-0.0939 1.060317,-0.20242 0.32955,-0.0614 0.659945,-0.0698 0.996156,-0.0585 0.317777,0.003 0.636212,0.005 0.952576,0.0347 0.279775,0.0309 0.553562,0.0942 0.834629,0.11152 0.323802,10e-4 0.647683,0.004 0.971432,-0.003 0.29931,-0.0105 0.60525,-0.0223 0.88139,-0.1366 -3.602413,1.85125 -2.028814,1.13154 -1.302719,0.60519 0.213236,-0.14282 0.427099,-0.27954 0.623899,-0.44013 0.16876,-0.19353 0.43838,-0.27327 0.62306,-0.45723 0.18422,-0.18594 0.29655,-0.41327 0.52024,-0.5689 0.16938,-0.21202 0.44915,-0.32351 0.57335,-0.57149 0.21064,-0.19139 0.45548,-0.35089 0.67912,-0.52919 0.22695,-0.19936 0.40582,-0.4375 0.61504,-0.65075 0.27705,-0.226 0.47857,-0.51557 0.78724,-0.71287 0.23301,-0.16041 0.48766,-0.28941 0.71933,-0.44964 0.22153,-0.21056 0.46922,-0.39932 0.66132,-0.63506 0.22855,-0.16791 0.43291,-0.36435 0.69273,-0.49724 0.29123,-0.13825 0.50432,-0.3726 0.73673,-0.57647 0.26776,-0.19967 0.4813,-0.44587 0.71723,-0.6739 0.29028,-0.20959 0.56296,-0.43907 0.87458,-0.62555 0.26768,-0.19913 0.50893,-0.42223 0.72328,-0.66676 0.1734,-0.22534 0.35614,-0.44689 0.47324,-0.70071 0.0536,-0.27738 0.0141,-0.56257 -0.001,-0.84223 -0.036,-0.28614 -0.10403,-0.56544 -0.23338,-0.83112 -0.0848,-0.25116 -0.19315,-0.50068 -0.35247,-0.72232 -0.17708,-0.24916 -0.31697,-0.51454 -0.44707,-0.78492 -0.16159,-0.282 -0.26231,-0.58139 -0.34977,-0.88749 -0.0595,-0.32217 -0.0756,-0.64454 -0.10989,-0.96929 -0.0454,-0.28587 -0.1295,-0.56715 -0.10858,-0.85805 -0.008,-0.30906 -0.0239,-0.6191 -0.094,-0.92291 -0.0866,-0.355 -0.18502,-0.70806 -0.28727,-1.05946 -0.11186,-0.32857 -0.14573,-0.67369 -0.28086,-0.99545 -0.1489,-0.27659 -0.32508,-0.53623 -0.53823,-0.77802 -0.19669,-0.26263 -0.37341,-0.5322 -0.55506,-0.8032 -0.15405,-0.2543 -0.26469,-0.52689 -0.44507,-0.76903 -0.18022,-0.2486 -0.33941,-0.50833 -0.53418,-0.74849 -0.18587,-0.28541 -0.34167,-0.5846 -0.50907,-0.8782 -0.1576,-0.27188 -0.36002,-0.52086 -0.43572,-0.82587 -0.1046,-0.32839 -0.23128,-0.65408 -0.3935,-0.96351 -0.14934,-0.32466 -0.37466,-0.62209 -0.4397,-0.97481 -0.1089,-0.28584 -0.27167,-0.54819 -0.46371,-0.79715 -0.21564,-0.24555 -0.41463,-0.49143 -0.55073,-0.78124 -0.17415,-0.31083 -0.39453,-0.59549 -0.58918,-0.89585 -0.27155,-0.42015 -0.48488,-0.86314 -0.63919,-1.32829 -0.22453,-0.49893 -0.48705,-0.98523 -0.66779,-1.49936 -0.22007,-0.56334 -0.47846,-1.11419 -0.781191,-1.64684 0,0 2.102641,-1.04706 2.102641,-1.04706 z"
       id="path6445"
       style="opacity:1;fill:#070707;fill-opacity:1;stroke:#000000;stroke-width:0.05895469;stroke-linecap:round;stroke-linejoin:round;stroke-miterlimit:4;stroke-dasharray:none;stroke-dashoffset:0;stroke-opacity:1"
       inkscape:connector-curvature="0" />
    <path
       d="m 105.48124,155.05217 c -0.0942,0.4505 -0.2441,0.88921 -0.35879,1.33548 -0.0716,0.31896 -0.14227,0.64039 -0.26278,0.94814 -0.11098,0.24334 -0.13976,0.50534 -0.20548,0.7592 -0.0793,0.27332 -0.10935,0.5539 -0.12677,0.83478 -0.0134,0.28667 -0.0125,0.57366 -0.0125,0.86052 3.2e-4,0.28817 10e-4,0.57633 10e-4,0.8645 1.6e-4,0.28812 3.2e-4,0.57624 3.2e-4,0.86436 0.004,0.32309 0.006,0.64474 -0.0406,0.96557 -0.0217,0.31146 -0.11814,0.59125 -0.27579,0.86736 -0.18649,0.2792 -0.41129,0.53671 -0.66156,0.77288 -0.25283,0.21005 -0.52369,0.40255 -0.78449,0.60497 -0.24696,0.20965 -0.50277,0.41163 -0.76604,0.60509 -0.25014,0.19948 -0.50131,0.39773 -0.75398,0.59466 -0.26658,0.21355 -0.55971,0.39872 -0.85228,0.58285 -0.849135,0.57721 -1.835483,0.98373 -2.748051,1.46483 -0.636898,0.33578 1.284931,-0.65465 1.927395,-0.98198 -0.281447,0.15548 -0.55194,0.32529 -0.831141,0.48386 -0.884476,0.48447 -1.771549,0.93989 -2.694666,1.38213 -0.04019,0.0192 -0.393636,0.0703 -0.432174,0.0762 -0.496882,0.0709 -0.985019,-0.039 -1.468208,-0.12863 -0.387434,-0.0754 -0.784026,-0.0899 -1.179029,-0.10005 -0.386813,-0.007 -0.773731,-0.004 -1.160591,-0.003 -0.236018,-0.0365 -0.609276,0.0698 -0.825121,-0.0264 -0.06189,-0.0276 -0.108959,-0.0758 -0.163438,-0.11375 -0.04973,-0.0519 -0.09946,-0.10379 -0.149192,-0.15569 0,0 2.053847,-1.10568 2.053847,-1.10568 v 0 c 0.04026,0.0348 0.08051,0.0695 0.120766,0.10422 0.284972,0.0974 0.611018,0.0185 0.910038,0.0427 0.387126,4.2e-4 0.774345,0.001 1.161299,0.0126 0.403914,0.0156 0.807492,0.0457 1.20157,0.13056 0.46523,0.0875 0.936142,0.16072 1.407745,0.0557 0.840211,-0.20244 1.811631,-0.85127 -1.499359,0.85654 -0.107875,0.0556 0.439639,-0.21849 0.31636,-0.17753 0.05127,-0.0279 0.102529,-0.0557 0.153795,-0.0835 0.292165,-0.1391 0.549897,-0.32108 0.832686,-0.47313 4.543489,-2.35444 1.42904,-0.73822 0.279608,-0.15091 -0.04858,0.0248 0.0937,-0.0547 0.141766,-0.0803 0.140285,-0.0747 0.276009,-0.1516 0.408634,-0.23726 0.273597,-0.20296 0.590821,-0.35787 0.855794,-0.57103 0.256296,-0.19447 0.504489,-0.39476 0.756319,-0.59299 0.246418,-0.2067 0.521748,-0.38699 0.769548,-0.59389 0.23225,-0.22817 0.51941,-0.41123 0.78951,-0.60239 0.25364,-0.22261 0.48342,-0.45691 0.68323,-0.71987 0.17415,-0.25113 0.30418,-0.49761 0.31734,-0.79842 0.0562,-0.31174 0.0637,-0.62084 0.0519,-0.93655 -1e-5,-0.28807 -2e-5,-0.57615 -1.6e-4,-0.86423 -1.6e-4,-0.28818 -6.7e-4,-0.57636 -10e-4,-0.86455 -3.3e-4,-0.28982 -0.002,-0.57972 0.007,-0.86946 0.0126,-0.29163 0.0327,-0.58417 0.10664,-0.86955 0.0698,-0.26057 0.10261,-0.52574 0.19156,-0.7821 0.13056,-0.30035 0.22853,-0.60988 0.28906,-0.9284 0.10941,-0.4402 0.27206,-0.86829 0.35246,-1.31412 0,0 2.16566,-0.94432 2.16566,-0.94432 z"
       id="path6447"
       style="opacity:1;fill:#070707;fill-opacity:1;stroke:#000000;stroke-width:0.05895469;stroke-linecap:round;stroke-linejoin:round;stroke-miterlimit:4;stroke-dasharray:none;stroke-dashoffset:0;stroke-opacity:1"
       inkscape:connector-curvature="0" />
    <path
       d="m 120.38202,139.23506 c -0.32453,0.28814 -0.64052,0.58426 -0.95332,0.88254 -0.25417,0.22025 -0.5078,0.441 -0.74151,0.67863 -0.22892,0.21655 -0.47388,0.42089 -0.71704,0.62522 -0.2388,0.22072 -0.49455,0.42572 -0.74679,0.63421 -0.25965,0.24562 -0.53397,0.47796 -0.80821,0.71067 -0.25348,0.24822 -0.53191,0.4745 -0.79585,0.7136 -0.24659,0.24269 -0.46557,0.505 -0.70467,0.75328 -0.17766,0.22282 -0.3531,0.44739 -0.55689,0.6524 -0.2028,0.18854 -0.35471,0.4139 -0.52226,0.62676 -0.19766,0.22717 -0.31133,0.49778 -0.41501,0.76666 -0.1139,0.24138 -0.19923,0.48703 -0.26729,0.74121 -0.0858,0.28036 -0.20942,0.5481 -0.28049,0.83213 -0.0604,0.27576 -0.0778,0.55373 -0.0345,0.83172 0.0368,0.29193 0.0953,0.57042 0.21289,0.84493 0.11046,0.29587 0.26946,0.57438 0.39387,0.86532 0.11263,0.30067 0.29634,0.57169 0.44507,0.85785 0.0737,0.13707 0.14173,0.27464 0.22558,0.40709 0,0 -2.0885,1.0644 -2.0885,1.0644 v 0 c -0.0849,-0.13837 -0.15558,-0.28085 -0.23266,-0.42275 -0.1472,-0.29231 -0.33979,-0.56512 -0.4542,-0.87071 -0.11911,-0.29204 -0.28432,-0.56744 -0.39248,-0.86332 -0.12588,-0.28859 -0.20906,-0.5748 -0.23894,-0.88448 -0.0563,-0.29989 -0.0611,-0.59594 -0.003,-0.89734 0.0563,-0.29218 0.16342,-0.56602 0.27128,-0.84494 0.0863,-0.25061 0.10579,-0.51989 0.26573,-0.74914 0.0903,-0.28704 0.20831,-0.57449 0.38104,-0.83045 0.1816,-0.21111 0.33239,-0.4387 0.50904,-0.65188 0.21866,-0.1889 0.41512,-0.40194 0.5677,-0.63675 0.22263,-0.26292 0.4815,-0.50064 0.70216,-0.76588 0.24398,-0.26027 0.55237,-0.46421 0.79137,-0.72847 0.27247,-0.23363 0.56103,-0.45566 0.80605,-0.7122 0.24852,-0.21014 0.51505,-0.40635 0.74171,-0.63456 0.2467,-0.19741 0.46846,-0.41452 0.72723,-0.60067 0.22872,-0.24724 0.47277,-0.4812 0.74126,-0.69545 0.32756,-0.28146 0.62726,-0.58817 0.94195,-0.88074 0,0 2.22967,-0.81889 2.22967,-0.81889 z"
       id="path6449"
       style="opacity:1;fill:none;fill-opacity:1;stroke:#31d67b;stroke-width:0.05895469;stroke-linecap:round;stroke-linejoin:round;stroke-miterlimit:4;stroke-dasharray:none;stroke-dashoffset:0;stroke-opacity:0.12156863"
       inkscape:connector-curvature="0" />
    <path
       d="m 113.33467,149.92458 c 0.28793,0.42913 0.48585,0.89699 0.76595,1.33015 0.21594,0.33961 0.4504,0.67093 0.70214,0.99065 0.24654,0.19937 0.38321,0.46774 0.57402,0.70364 0.1654,0.22543 0.26372,0.4772 0.41661,0.70931 0.25394,0.32522 0.32599,0.72393 0.40405,1.10507 0.1323,0.56281 0.26082,1.12709 0.35602,1.69587 0.11901,0.56515 0.18157,1.13782 0.28104,1.70531 0.078,0.34626 0.13968,0.69436 0.17124,1.04635 0.026,0.2924 0.0103,0.58603 0.0339,0.87834 0.0583,0.40876 0.24334,0.79261 0.3667,1.18826 0.12522,0.49522 0.38359,0.94849 0.62229,1.40584 0.18594,0.33161 0.41199,0.64322 0.6009,0.97353 0.20242,0.284 0.34485,0.59621 0.52349,0.8921 0.21054,0.31567 0.44087,0.61999 0.7299,0.88325 0.27257,0.29809 0.59201,0.54328 0.93513,0.77413 0.40798,0.24943 0.84144,0.46464 1.26512,0.6924 0.37003,0.22744 0.79428,0.35084 1.20249,0.50698 0.30614,0.1167 0.63496,0.16538 0.9555,0.24047 0.30954,0.0685 0.62867,0.0824 0.94608,0.0914 0.32352,0.006 0.64714,0.004 0.97071,0.004 0.32499,-5.4e-4 0.64998,-10e-4 0.97497,-10e-4 0.31416,-0.0179 0.6398,0.0379 0.94701,-0.0298 0.73791,-0.21956 2.30666,-1.12409 -1.61497,0.85417 -0.0736,0.0371 0.14163,-0.0832 0.20522,-0.13285 0.0946,-0.0885 0.13247,-0.19667 0.17146,-0.31 0,0 2.17336,-0.92664 2.17336,-0.92664 v 0 c -0.0269,0.13626 -0.0531,0.2724 -0.1243,0.39746 -0.54954,0.80863 -1.71504,1.22264 -2.74294,1.39827 -0.32107,0.0102 -0.64249,0.002 -0.96371,0.005 -0.32497,2.9e-4 -0.64995,0.001 -0.97493,0.001 -0.32584,6e-5 -0.65187,0.001 -0.97746,-0.0121 -0.32893,-0.0175 -0.65748,-0.0479 -0.97552,-0.12869 -0.32751,-0.0772 -0.66275,-0.13299 -0.96878,-0.26876 -0.42012,-0.15401 -0.83653,-0.31259 -1.21887,-0.53448 -0.42924,-0.23108 -0.86266,-0.45794 -1.27399,-0.71351 -0.35358,-0.23782 -0.68221,-0.4929 -0.9611,-0.80123 -0.29366,-0.28402 -0.54548,-0.59786 -0.76935,-0.92807 -0.17953,-0.29704 -0.31436,-0.61368 -0.51984,-0.89805 -0.19497,-0.33131 -0.41635,-0.64959 -0.60189,-0.98517 -0.23525,-0.47053 -0.49326,-0.93511 -0.6306,-1.43825 -0.1313,-0.40464 -0.33111,-0.79374 -0.40374,-1.21097 -0.0464,-0.29324 -0.0193,-0.58942 -0.0401,-0.88481 -0.023,-0.34848 -0.0734,-0.69407 -0.14741,-1.03706 -0.0992,-0.56918 -0.13308,-1.1474 -0.2693,-1.71225 -0.0952,-0.56536 -0.22199,-1.12675 -0.35926,-1.68513 -0.0784,-0.3553 -0.1459,-0.72925 -0.38688,-1.03071 -0.14832,-0.2272 -0.2499,-0.46993 -0.40538,-0.69231 -0.18949,-0.23747 -0.32654,-0.50477 -0.56679,-0.7102 -0.25445,-0.32578 -0.49003,-0.66428 -0.70345,-1.0124 -0.27293,-0.43026 -0.4589,-0.90039 -0.77663,-1.307 0,0 2.08183,-1.08163 2.08183,-1.08163 z"
       id="path6451"
       style="opacity:1;fill:#070707;fill-opacity:1;stroke:#000000;stroke-width:0.05895469;stroke-linecap:round;stroke-linejoin:round;stroke-miterlimit:4;stroke-dasharray:none;stroke-dashoffset:0;stroke-opacity:1"
       inkscape:connector-curvature="0" />
    <path
       d="m 119.48492,144.44073 c 0.92739,-0.32785 3.43346,-1.63128 -0.24978,0.23772 0.89617,-0.4974 1.82812,-0.94178 2.74236,-1.41198 0.61189,-0.31471 -1.22542,0.62694 -1.84138,0.93536 -0.0719,0.036 0.16951,-0.0963 0.40855,-0.2278 0.81235,-0.78252 1.72032,-0.87829 2.62408,-1.29106 0.15231,-0.0696 0.28389,-0.14653 0.44467,-0.20291 -0.4573,0.23066 0.87353,-0.40789 0.43079,-0.1823 -3.32139,1.69241 -2.37008,1.24106 -1.67244,0.82411 0.27043,-0.18778 0.54413,-0.36919 0.79965,-0.57319 0.26574,-0.19656 0.51545,-0.40862 0.77993,-0.60661 0.92908,-0.61109 1.9891,-1.07893 2.98283,-1.58195 0.0537,-0.0249 0.10734,-0.0499 0.16114,-0.0746 0.12873,-0.0591 0.51262,-0.24012 0.38721,-0.17564 -3.96816,2.0402 -0.73844,0.3691 0.63568,-0.30977 -0.1342,0.0844 0.52177,-0.24882 0.39338,-0.1833 -4.2819,2.18495 -0.50485,0.24819 0.37719,-0.18615 0.125,-0.0616 0.26588,-0.0935 0.39651,-0.14513 0.0617,-0.0295 0.24578,-0.11956 0.18505,-0.0885 -0.62376,0.3187 -2.49142,1.28017 -1.87422,0.95158 0.72918,-0.3882 1.77283,-1.08868 2.76027,-1.30658 0.30604,-0.022 0.58959,-0.12048 0.89167,-0.16296 0.1487,-0.0182 0.29867,-0.024 0.44843,-0.0302 0,0 -1.94055,1.26857 -1.94055,1.26857 v 0 c -0.14488,0.012 -0.29,0.0239 -0.43236,0.0521 -0.29077,0.0597 -0.5812,0.11814 -0.87173,0.17751 -0.16849,0.0547 -0.76139,0.33839 -0.49148,0.19909 3.98835,-2.05842 0.82739,-0.38511 -0.55719,0.26067 -0.12962,0.0497 -0.50715,0.21932 -0.38571,0.15539 0.617,-0.32483 2.48455,-1.27422 1.86074,-0.95978 -0.87838,0.44277 -1.72596,0.92546 -2.62615,1.32921 -0.0718,0.0329 -0.28494,0.13534 -0.21542,0.0988 0.60638,-0.31894 2.44271,-1.24945 1.82628,-0.94605 -0.94051,0.46292 -1.84165,0.98703 -2.80645,1.40962 3.59337,-1.85208 1.90876,-1.01859 1.13057,-0.54264 -0.28486,0.17493 -0.52303,0.39821 -0.78438,0.59741 -0.14124,0.0989 -0.25747,0.21841 -0.39731,0.31781 -0.088,0.0626 -0.1954,0.10187 -0.28222,0.16578 -0.0415,0.0305 -0.0734,0.0699 -0.11016,0.10483 -0.88729,0.59245 -1.87644,1.06547 -2.88775,1.47145 -0.82695,0.37664 -2.50749,1.13165 1.05576,-0.59839 -1.3429,0.67477 -4.87319,2.52783 -0.84915,0.45453 0.15824,-0.0815 -0.66319,0.33228 -0.46984,0.25188 -1.27215,0.65251 -2.51765,1.3226 -3.85681,1.85731 0,0 1.87974,-1.3332 1.87974,-1.3332 z"
       id="path6453"
       style="opacity:1;fill:none;fill-opacity:1;stroke:#00ff76;stroke-width:0.05895469;stroke-linecap:round;stroke-linejoin:round;stroke-miterlimit:4;stroke-dasharray:none;stroke-dashoffset:0;stroke-opacity:1"
       inkscape:connector-curvature="0" />
    <path
       d="m 127.69528,140.9656 c -0.46477,0.0735 -0.90782,0.21164 -1.35142,0.34994 -0.38737,0.18087 -0.82515,0.23651 -1.22554,0.38623 -0.37113,0.13089 -0.72723,0.29151 -1.07769,0.4612 3.53208,-1.92743 1.64649,-0.82404 0.85061,-0.35065 -0.35106,0.22577 -0.70123,0.45178 -1.04807,0.6827 -0.3976,0.26414 -0.74774,0.57542 -1.16408,0.81669 -1.03172,0.71052 -2.25418,1.08795 -3.36857,1.65655 -0.33277,0.1266 -0.6556,0.26428 -0.97683,0.41061 0.64334,-0.32746 2.57622,-1.30535 1.93002,-0.98236 -0.73672,0.36824 -1.46829,0.74453 -2.20159,1.11809 -0.047,0.0239 -0.18616,0.0982 -0.13917,0.0743 0.63757,-0.32411 1.27264,-0.65209 1.91095,-0.97506 0.0512,-0.0259 -0.0983,0.0578 -0.14939,0.0838 -0.73769,0.37514 -1.4779,0.74637 -2.21685,1.11956 -0.79021,0.36823 -0.36689,0.17314 1.74641,-0.8953 0.0556,-0.0281 -0.10962,0.0587 -0.16375,0.089 -0.16405,0.0918 -0.32647,0.18619 -0.48745,0.2822 -1.33456,0.74079 -4.51959,2.30109 -0.4633,0.25539 0.0479,-0.0242 -0.0931,0.0522 -0.13876,0.0795 -0.0862,0.0516 -0.17013,0.10608 -0.25537,0.15891 -0.25086,0.17914 -0.51333,0.34463 -0.77106,0.51565 -0.25592,0.20304 -0.54147,0.37177 -0.82266,0.54526 -0.30944,0.16208 -0.58246,0.3684 -0.84855,0.58085 -0.24561,0.21575 -0.50188,0.42234 -0.76676,0.61937 -0.2491,0.20059 -0.50033,0.39894 -0.753,0.59596 -0.24156,0.20027 -0.46915,0.41469 -0.67517,0.64416 -0.22386,0.24552 -0.46979,0.47178 -0.71729,0.69812 -0.28394,0.2597 -0.50103,0.56307 -0.71639,0.86784 -0.35707,0.48952 -0.59555,1.03246 -0.83735,1.57136 -0.24988,0.5568 -0.55006,1.09362 -0.74994,1.66699 -0.14923,0.50005 -0.23585,1.01162 -0.33752,1.52025 -0.0877,0.54605 -0.2644,1.07484 -0.36842,1.61825 -0.0832,0.47307 -0.10757,0.95178 -0.11722,1.42979 0.004,0.30163 -0.0245,0.60761 -0.15385,0.88851 -0.17542,0.25734 -0.38966,0.49205 -0.59087,0.73372 -0.28509,0.2831 -0.58083,0.55109 -0.83233,0.8594 -0.26259,0.41862 -0.50901,0.84376 -0.78515,1.25613 -0.25793,0.36236 -0.54949,0.70486 -0.87893,1.01818 -0.28425,0.28297 -0.58834,0.54888 -0.92429,0.78324 -0.24764,0.194 -0.51308,0.36763 -0.77333,0.54758 -0.30903,0.19205 -0.59978,0.40583 -0.91256,0.59299 -0.87514,0.59019 -1.80928,1.00363 -2.8009,1.48872 -0.15857,0.0776 -0.33861,0.11412 -0.50619,0.17499 -0.597466,0.25703 -1.239719,0.3833 -1.875289,0.54018 -0.74368,0.14784 -1.498504,0.25685 -2.254112,0.3456 -0.692323,0.111 -1.391875,0.17585 -2.09373,0.21286 -0.463383,0.0584 -0.925167,0.12339 -1.39208,0.15505 -0.331137,0.005 -0.670286,0.0507 -0.996771,-0.009 0,0 1.970082,-1.23442 1.970082,-1.23442 v 0 c 0.320074,0.0128 0.641071,-0.005 0.960356,-0.0248 0.460192,-0.0387 0.916503,-0.10535 1.377188,-0.13972 0.696726,-0.0427 1.389353,-0.11621 2.077784,-0.22153 0.748798,-0.0953 1.50012,-0.1952 2.232392,-0.366 0.63858,-0.15533 1.26961,-0.3208 1.87159,-0.57009 0.81565,-0.2999 1.85409,-0.90975 -1.33377,0.7502 -0.23723,0.12353 0.77786,-0.3865 0.52776,-0.32726 0.31447,-0.18089 0.60977,-0.37688 0.9055,-0.58163 0.2759,-0.16172 0.54138,-0.34405 0.78351,-0.54453 0.34253,-0.22516 0.67367,-0.46547 0.94815,-0.75744 0.33701,-0.2978 0.62867,-0.62377 0.89511,-0.97365 0.29103,-0.40914 0.56522,-0.8257 0.78675,-1.26849 0.23283,-0.31937 0.49092,-0.61166 0.80878,-0.86868 0.21838,-0.21933 0.38805,-0.47416 0.60331,-0.69608 0.18721,-0.22883 0.21115,-0.52713 0.21759,-0.80302 0.0131,-0.48912 0.037,-0.97833 0.1165,-1.46318 0.0982,-0.54513 0.26424,-1.07446 0.362,-1.6191 0.10675,-0.51444 0.18996,-1.03217 0.32585,-1.5416 0.19094,-0.584 0.48803,-1.12751 0.75103,-1.6878 0.24231,-0.54179 0.46398,-1.09419 0.8026,-1.59669 0.2087,-0.31242 0.41054,-0.63023 0.68907,-0.89911 0.22474,-0.24326 0.50587,-0.44084 0.72013,-0.69274 0.22341,-0.22258 0.4198,-0.46237 0.65847,-0.67426 0.25629,-0.19443 0.50457,-0.39468 0.75583,-0.59343 0.24843,-0.20975 0.5261,-0.39279 0.77186,-0.60678 0.23918,-0.24084 0.53295,-0.44425 0.83071,-0.6247 0.29068,-0.15457 0.56465,-0.33508 0.83262,-0.51854 0.23189,-0.19801 0.51626,-0.34013 0.76572,-0.52061 0.69329,-0.56005 2.12174,-1.16203 2.58843,-1.39658 0.63548,-0.31936 -1.26167,0.65306 -1.89376,0.97766 -0.0557,0.0286 0.10978,-0.0598 0.16467,-0.0897 0.94103,-0.61727 2.00637,-1.08386 3.01978,-1.59101 -0.63609,0.32739 -1.27243,0.65437 -1.90825,0.98219 -0.0504,0.026 0.10181,-0.0507 0.15223,-0.0768 0.73505,-0.38073 1.46865,-0.76366 2.20416,-1.14369 0.0475,-0.0245 0.19236,-0.0945 0.14483,-0.07 -0.64133,0.33046 -2.57549,1.30598 -1.92625,0.98791 0.74046,-0.36275 1.46662,-0.74799 2.19992,-1.12198 0.31593,-0.1466 0.65495,-0.25053 0.96424,-0.4092 0.8335,-0.39413 2.84679,-1.28624 -0.72889,0.43994 0.44307,-0.20416 0.78241,-0.51131 1.16632,-0.79017 0.34507,-0.23495 0.69457,-0.46296 1.04506,-0.68903 1.01387,-0.67328 2.16179,-1.20186 3.24745,-1.76206 0.35641,-0.16621 0.72178,-0.3192 1.10082,-0.44075 0.41255,-0.11903 0.82798,-0.22897 1.22715,-0.38141 0.45039,-0.13735 0.91045,-0.2411 1.37084,-0.34807 0,0 -1.91167,1.30508 -1.91167,1.30508 z"
       id="path6455"
       style="opacity:1;fill:#070707;fill-opacity:1;stroke:#000000;stroke-width:0.05895469;stroke-linecap:round;stroke-linejoin:round;stroke-miterlimit:4;stroke-dasharray:none;stroke-dashoffset:0;stroke-opacity:1"
       inkscape:connector-curvature="0" />
    <path
       transform="matrix(0.60785825,0,0,0.53896415,42.194903,49.205568)"
       d="m 41.961315,138.2419 c 0.85763,0.56282 -0.335546,1.43374 -0.935444,1.42543 -1.625687,-0.0225 -2.28865,-1.96123 -1.915429,-3.29632 0.667604,-2.38817 3.511153,-3.24188 5.657206,-2.40542 3.149419,1.22753 4.217771,5.08008 2.895414,8.01809 -1.762494,3.9159 -6.655491,5.20298 -10.378969,3.3854 -4.685616,-2.28723 -6.19295,-8.23392 -3.875398,-12.73985 2.806865,-5.45728 9.814051,-7.18566 15.100731,-4.36539 6.230168,3.32359 8.180081,11.39523 4.855383,17.46161 -3.838495,7.00388 -12.977109,9.17565 -19.822493,5.34538 -7.778161,-4.35221 -10.172025,-14.55948 -5.835368,-22.18338 4.865074,-8.55285 16.142217,-11.16898 24.544255,-6.32536 9.327855,5.37734 12.166374,17.72523 6.815353,26.90514"
       id="path6457"
       style="fill:none;fill-opacity:1;fill-rule:evenodd;stroke:#00ff76;stroke-width:3;stroke-linecap:round;stroke-miterlimit:4;stroke-dasharray:none;stroke-opacity:1"
       inkscape:connector-curvature="0" />
    <path
       transform="matrix(0.60785825,0,0,0.53896415,42.194903,49.205568)"
       d="m 66.55011,111.51494 c 0.737026,0.41541 -0.196348,1.19845 -0.690446,1.22498 -1.338976,0.0719 -1.992362,-1.48651 -1.759525,-2.60587 0.41649,-2.00229 2.70886,-2.86297 4.52131,-2.29407 2.659842,0.83489 3.753279,3.94559 2.828603,6.43674 -1.232449,3.32032 -5.187131,4.65163 -8.352173,3.36315 -3.982883,-1.62142 -5.554045,-6.4309 -3.897682,-10.26761 2.006078,-4.64676 7.675906,-6.45881 12.183036,-4.43222 5.311498,2.38827 7.365059,8.92168 4.96676,14.09847 -2.76893,5.9768 -10.167973,8.27228 -16.013899,5.5013 -6.642513,-3.14857 -9.180197,-11.41463 -6.035838,-17.92933 3.527495,-7.308519 12.661542,-10.088614 19.844762,-6.570381 7.974736,3.905901 10.997398,13.908661 7.104917,21.760191"
       id="path6459"
       style="fill:none;fill-opacity:1;fill-rule:evenodd;stroke:#00ff76;stroke-width:3;stroke-miterlimit:4;stroke-dasharray:none;stroke-opacity:1"
       inkscape:connector-curvature="0" />
    <path
       transform="matrix(0.60785825,0,0,0.53896415,42.194903,49.205568)"
       d="m 100.76061,123.00754 c 0.83083,0.44221 -0.18619,1.33811 -0.73499,1.38089 -1.487201,0.11592 -2.255692,-1.59973 -2.026792,-2.85088 0.409449,-2.238 2.935792,-3.25674 4.966762,-2.67269 2.98053,0.85712 4.28009,4.28731 3.31859,7.08265 -1.28153,3.72574 -5.64396,5.3125 -9.198528,3.96449 -4.473057,-1.69634 -6.349514,-7.00299 -4.610392,-11.31441 2.10631,-5.22172 8.36333,-7.38917 13.4303,-5.2563 5.97125,2.51352 8.43048,9.72448 5.90219,15.54618 -2.91901,6.72139 -11.08618,9.4729 -17.662066,6.5481 -7.471939,-3.32335 -10.516092,-12.44827 -7.193993,-19.77795 3.726894,-8.2228 13.810629,-11.55985 21.893839,-7.8399 8.97388,4.12986 12.60402,15.17321 8.48579,24.00972"
       id="path6461"
       style="fill:none;fill-opacity:1;fill-rule:evenodd;stroke:#00ff76;stroke-width:3;stroke-miterlimit:4;stroke-dasharray:none;stroke-opacity:1"
       inkscape:connector-curvature="0" />
    <path
       transform="matrix(0.60785825,0,0,0.53896415,42.194903,49.205568)"
       d="m 137.91107,108.04044 c 0.77723,0.69683 -0.55585,1.39148 -1.15817,1.29181 -1.63224,-0.27011 -2.00417,-2.32166 -1.42543,-3.60814 1.03523,-2.30122 4.0262,-2.72734 6.05811,-1.55907 2.98191,1.71447 3.4704,5.75331 1.6927,8.50808 -2.36939,3.67167 -7.48837,4.22186 -10.95805,1.82633 -4.36625,-3.01452 -4.97764,-9.22719 -1.95997,-13.40802 3.65481,-5.063547 10.96813,-5.735922 15.85799,-2.0936 5.76254,4.29235 6.49578,12.71039 2.22724,18.30796 -4.9282,6.46262 -14.45354,7.25667 -20.75794,2.36087 -7.16346,-5.56292 -8.01829,-16.1973 -2.4945,-23.207905 6.19687,-7.864845 17.94151,-8.780455 25.65788,-2.628133 8.56663,6.830248 9.54301,19.686058 2.76177,28.107848"
       id="path6463"
       style="fill:none;fill-opacity:1;fill-rule:evenodd;stroke:#00ff76;stroke-width:3;stroke-miterlimit:4;stroke-dasharray:none;stroke-opacity:1"
       inkscape:connector-curvature="0" />
    <path
       transform="matrix(0.60785825,0,0,0.53896415,42.194903,49.205568)"
       d="m 167.04344,124.87841 c 0.38862,0.58962 -0.60307,0.81474 -0.97999,0.6459 -1.02143,-0.45754 -0.91179,-1.86376 -0.31181,-2.60588 1.07322,-1.32746 3.10338,-1.09165 4.23177,0.0223 1.65594,1.63474 1.28066,4.3612 -0.35636,5.85766 -2.18189,1.99455 -5.62565,1.47379 -7.48355,-0.69044 -2.33797,-2.72347 -1.6691,-6.89331 1.02453,-9.10944 3.26234,-2.68403 8.16278,-1.86568 10.73533,1.35862 3.03165,3.79971 2.06305,9.43339 -1.6927,12.36121 -4.33617,3.38029 -10.70476,2.26097 -13.98711,-2.02678 -3.72961,-4.87202 -2.45925,-11.97666 2.36087,-15.613 5.40745,-4.07942 13.24894,-2.65781 17.23889,2.69496 4.42959,5.94258 2.85656,14.52151 -3.02904,18.86477"
       id="path6465"
       style="fill:none;fill-opacity:1;fill-rule:evenodd;stroke:#00ff76;stroke-width:3;stroke-miterlimit:4;stroke-dasharray:none;stroke-opacity:1"
       inkscape:connector-curvature="0" />
    <path
       transform="matrix(0.60785825,0,0,0.53896415,42.194903,49.205568)"
       d="m 77.235748,154.0294 c 0.656624,0.50922 -0.36246,1.13635 -0.846352,1.09136 -1.31132,-0.12194 -1.722937,-1.72978 -1.33635,-2.78406 0.691511,-1.88586 3.042187,-2.39376 4.72176,-1.58135 2.46484,1.19224 3.08167,4.37139 1.826348,6.65946 -1.673147,3.04964 -5.706428,3.7767 -8.597169,2.07135 -3.637701,-2.146 -4.475362,-7.04421 -2.316345,-10.53487 2.614859,-4.22766 8.38353,-5.17614 12.472576,-2.56135 4.8188,3.08145 5.878229,9.72381 2.806343,14.41028 -3.546614,5.41072 -11.06473,6.58121 -16.347984,3.05135 -6.003169,-4.01086 -7.284794,-12.4061 -3.29634,-18.28569 4.474443,-6.59601 13.747798,-7.98884 20.223392,-3.54134 7.189135,4.93756 8.693207,15.08974 3.786337,22.16109"
       id="path6467"
       style="fill:none;fill-opacity:1;fill-rule:evenodd;stroke:#00ff76;stroke-width:3;stroke-miterlimit:4;stroke-dasharray:none;stroke-opacity:1"
       inkscape:connector-curvature="0" />
    <path
       transform="matrix(0.60785825,0,0,0.53896415,42.194903,49.205568)"
       d="m 55.324795,174.85782 c 0.710224,0.40201 -0.191508,1.15571 -0.668175,1.18044 -1.291738,0.067 -1.919272,-1.43743 -1.692705,-2.51679 0.405276,-1.93073 2.618068,-2.75693 4.365405,-2.20497 2.564287,0.81003 3.613579,3.81261 2.717234,6.21402 -1.194686,3.2007 -5.011815,4.47796 -8.062634,3.2295 -3.839144,-1.57106 -5.346277,-6.21317 -3.741764,-9.91125 1.943279,-4.47887 7.415728,-6.21686 11.759863,-4.25403 5.119414,2.31312 7.088852,8.61903 4.766295,13.60848 -2.681485,5.76051 -9.822829,7.96179 -15.457094,5.27856 -6.402009,-3.04887 -8.835402,-11.02698 -5.790824,-17.30571 3.415556,-7.04379 12.231383,-9.70949 19.154323,-6.30309 7.685776,3.78175 10.583939,13.43598 6.815354,21.00294"
       id="path6469"
       style="fill:none;fill-rule:evenodd;stroke:#00ff76;stroke-width:3;stroke-miterlimit:4;stroke-dasharray:none;stroke-opacity:1"
       inkscape:connector-curvature="0" />
    <path
       transform="matrix(0.60785825,0,0,0.53896415,42.194903,49.205568)"
       d="m 105.72947,152.09656 c 0.50374,0.34624 -0.2182,0.84985 -0.57547,0.83725 -0.9682,-0.0342 -1.33841,-1.19759 -1.09903,-1.9882 0.4282,-1.4142 2.1331,-1.88649 3.40091,-1.3608 1.86056,0.77149 2.44785,3.08023 1.62258,4.81363 -1.09996,2.31036 -4.03133,3.01468 -6.22635,1.88436 -2.76221,-1.4224 -3.584287,-4.9843 -2.14613,-7.63907 1.74181,-3.21528 5.93831,-4.15552 9.05179,-2.40791 3.66913,2.0595 4.72775,6.89297 2.66968,10.46451 -2.37612,4.12349 -7.84805,5.30066 -11.87722,2.93146 -4.578203,-2.69204 -5.874049,-8.80345 -3.19324,-13.28995 3.00746,-5.03316 9.75907,-6.44777 14.70266,-3.45501 5.48833,3.32253 7.02176,10.71486 3.71679,16.11538"
       id="path6471"
       style="fill:none;fill-opacity:1;fill-rule:evenodd;stroke:#00ff76;stroke-width:3;stroke-miterlimit:4;stroke-dasharray:none;stroke-opacity:1"
       inkscape:connector-curvature="0" />
    <path
       transform="matrix(0.60785825,0,0,0.53896415,42.194903,49.205568)"
       d="m 105.57146,92.538811 c 0.50922,0.683423 -0.67001,1.023593 -1.1359,0.846354 -1.26251,-0.480306 -1.22815,-2.182275 -0.55681,-3.118144 1.20086,-1.674049 3.66339,-1.531021 5.10039,-0.267274 2.10886,1.8546 1.84617,5.165788 -0.0223,7.082642 -2.49033,2.554865 -6.67589,2.16675 -9.064886,-0.311806 -3.006302,-3.119009 -2.490179,-8.189726 0.601346,-11.04714 3.74425,-3.460712 9.70565,-2.815264 13.02939,0.890886 3.91691,4.367571 3.14139,11.222888 -1.18043,15.011641 -4.98971,4.37426 -12.740995,3.46821 -16.993885,-1.46997 -4.832403,-5.611074 -3.795522,-14.259721 1.759507,-18.976135 6.231908,-5.291105 15.778898,-4.123184 20.958388,2.049047 5.75022,6.852345 4.45111,17.298398 -2.33859,22.940638"
       id="path6473"
       style="fill:none;fill-opacity:1;fill-rule:evenodd;stroke:#00ff76;stroke-width:3;stroke-miterlimit:4;stroke-dasharray:none;stroke-opacity:1"
       inkscape:connector-curvature="0" />
    <path
       transform="matrix(0.60785825,0,0,0.53896415,42.194968,49.205461)"
       d="m 133.16672,162.82964 c 0.73653,0.60962 -0.45838,1.29359 -1.01324,1.22416 -1.50361,-0.18816 -1.91822,-2.05229 -1.43509,-3.25063 0.8642,-2.14354 3.58614,-2.64173 5.48803,-1.64603 2.79109,1.46123 3.38427,5.13993 1.85696,7.72543 -2.03566,3.44606 -6.70069,4.13478 -9.96283,2.06789 -4.10507,-2.60096 -4.88938,-8.26473 -2.27882,-12.20022 3.16173,-4.76642 9.83062,-5.64635 14.43762,-2.48976 5.42919,3.71993 6.40479,11.39766 2.70069,16.67502 -4.27653,6.09292 -12.96548,7.16423 -18.91242,2.91162 -6.7573,-4.83208 -7.92436,-14.53382 -3.12255,-21.14982 5.3869,-7.42214 16.10257,-8.68499 23.38721,-3.33348 8.08734,5.94119 9.446,17.67161 3.54442,25.62461"
       id="path6475"
       style="fill:none;fill-opacity:1;fill-rule:evenodd;stroke:#00ff76;stroke-width:3;stroke-miterlimit:4;stroke-dasharray:none;stroke-opacity:1"
       inkscape:connector-curvature="0" />
    <path
       transform="matrix(0.60785825,0,0,0.53896415,42.194903,49.205568)"
       d="m 177.19969,155.0799 c 0.64322,0.57622 -0.45939,1.15133 -0.95771,1.06907 -1.35044,-0.22292 -1.6588,-1.92002 -1.18044,-2.98451 0.85567,-1.90412 3.32993,-2.25762 5.0113,-1.2918 2.46748,1.41739 2.87293,4.75852 1.40316,7.0381 -1.95896,3.03832 -6.19366,3.49518 -9.06489,1.51452 -3.61315,-2.49244 -4.121,-7.63192 -1.62588,-11.09168 3.02191,-4.19023 9.07194,-4.7489 13.11848,-1.73725 4.7687,3.54912 5.37808,10.51305 1.8486,15.14528 -4.07492,5.34808 -11.95488,6.00814 -17.17207,1.95996 -5.92809,-4.59978 -6.6388,-13.39722 -2.07133,-19.19886 5.12402,-6.50855 14.83995,-7.2699 21.22566,-2.18269 7.08935,5.64777 7.90134,16.28295 2.29405,23.25245"
       id="path6477"
       style="fill:none;fill-opacity:1;fill-rule:evenodd;stroke:#00ff76;stroke-width:3;stroke-miterlimit:4;stroke-dasharray:none;stroke-opacity:1"
       inkscape:connector-curvature="0" />
    <path
       transform="matrix(0.60785825,0,0,0.53896415,42.194903,49.205568)"
       d="m 21.100416,165.78404 c 0.710225,0.40202 -0.191508,1.15571 -0.668175,1.18044 -1.291737,0.067 -1.919272,-1.43743 -1.692705,-2.51679 0.405276,-1.93072 2.618068,-2.75693 4.365405,-2.20497 2.564287,0.81003 3.613579,3.81261 2.717235,6.21402 -1.194686,3.2007 -5.011816,4.47796 -8.062634,3.2295 -3.839144,-1.57106 -5.346277,-6.21317 -3.741765,-9.91125 1.94328,-4.47886 7.415728,-6.21685 11.759864,-4.25403 5.119413,2.31313 7.088852,8.61903 4.766294,13.60848 -2.681484,5.76052 -9.822828,7.9618 -15.457093,5.27856 C 8.684832,173.35914 6.2514397,165.38102 9.2960175,159.10229 12.711574,152.05851 21.5274,149.3928 28.45034,152.7992 c 7.685776,3.78175 10.583939,13.43598 6.815355,21.00294"
       id="path6469-8"
       style="fill:none;fill-opacity:1;fill-rule:evenodd;stroke:#00ff76;stroke-width:3;stroke-miterlimit:4;stroke-dasharray:none;stroke-opacity:1"
       inkscape:connector-curvature="0" />
    <path
       transform="matrix(0.60785825,0,0,0.53896415,42.194903,49.205568)"
       d="m 143.42529,138.3214 c 0.38862,0.58962 -0.60307,0.81474 -0.97998,0.6459 -1.02143,-0.45755 -0.9118,-1.86377 -0.31182,-2.60588 1.07322,-1.32747 3.10338,-1.09166 4.23177,0.0223 1.65595,1.63473 1.28066,4.3612 -0.35636,5.85766 -2.18189,1.99454 -5.62565,1.47379 -7.48355,-0.69044 -2.33797,-2.72347 -1.6691,-6.89331 1.02453,-9.10944 3.26235,-2.68403 8.16278,-1.86568 10.73533,1.35861 3.03165,3.79972 2.06306,9.43339 -1.6927,12.36122 -4.33617,3.38029 -10.70476,2.26097 -13.98711,-2.02679 -3.72961,-4.87201 -2.45925,-11.97665 2.36087,-15.61299 5.40745,-4.07943 13.24894,-2.65781 17.23889,2.69495 4.4296,5.94259 2.85656,14.52152 -3.02904,18.86478"
       id="path6465-8"
       style="fill:none;fill-opacity:1;fill-rule:evenodd;stroke:#00ff76;stroke-width:3;stroke-miterlimit:4;stroke-dasharray:none;stroke-opacity:1"
       inkscape:connector-curvature="0" />
    <path
       transform="matrix(0.4916822,0,0,0.39052897,59.728327,73.49367)"
       d="m 163.73776,177.07549 c 0.38862,0.58962 -0.60307,0.81474 -0.97999,0.6459 -1.02142,-0.45755 -0.91179,-1.86377 -0.31181,-2.60588 1.07322,-1.32747 3.10338,-1.09166 4.23177,0.0223 1.65594,1.63473 1.28066,4.3612 -0.35636,5.85766 -2.18189,1.99454 -5.62565,1.47379 -7.48355,-0.69044 -2.33797,-2.72347 -1.6691,-6.89331 1.02453,-9.10944 3.26234,-2.68403 8.16278,-1.86568 10.73533,1.35861 3.03165,3.79972 2.06306,9.43339 -1.6927,12.36122 -4.33617,3.38029 -10.70476,2.26097 -13.98711,-2.02679 -3.72961,-4.87202 -2.45925,-11.97665 2.36087,-15.61299 5.40745,-4.07943 13.24894,-2.65781 17.23889,2.69495 4.42959,5.94259 2.85656,14.52152 -3.02904,18.86478"
       id="path6465-8-8"
       style="fill:none;fill-opacity:1;fill-rule:evenodd;stroke:#00ff76;stroke-width:3;stroke-miterlimit:4;stroke-dasharray:none;stroke-opacity:1"
       inkscape:connector-curvature="0" />
    <path
       transform="matrix(0.4916822,0,0,0.39052897,8.227885,51.094097)"
       d="m 163.73776,177.07549 c 0.38862,0.58962 -0.60307,0.81474 -0.97999,0.6459 -1.02142,-0.45755 -0.91179,-1.86377 -0.31181,-2.60588 1.07322,-1.32747 3.10338,-1.09166 4.23177,0.0223 1.65594,1.63473 1.28066,4.3612 -0.35636,5.85766 -2.18189,1.99454 -5.62565,1.47379 -7.48355,-0.69044 -2.33797,-2.72347 -1.6691,-6.89331 1.02453,-9.10944 3.26234,-2.68403 8.16278,-1.86568 10.73533,1.35861 3.03165,3.79972 2.06306,9.43339 -1.6927,12.36122 -4.33617,3.38029 -10.70476,2.26097 -13.98711,-2.02679 -3.72961,-4.87202 -2.45925,-11.97665 2.36087,-15.61299 5.40745,-4.07943 13.24894,-2.65781 17.23889,2.69495 4.42959,5.94259 2.85656,14.52152 -3.02904,18.86478"
       id="path6465-8-8-2"
       style="fill:none;fill-opacity:1;fill-rule:evenodd;stroke:#00ff76;stroke-width:3;stroke-miterlimit:4;stroke-dasharray:none;stroke-opacity:1"
       inkscape:connector-curvature="0" />
    <text
       transform="scale(1.1975463,0.83504079)"
       id="text6849"
       y="230.16061"
       x="60.311317"
       style="font-style:normal;font-variant:normal;font-weight:normal;font-stretch:normal;font-size:48.31048965px;line-height:1.25;font-family:'Blackadder ITC';-inkscape-font-specification:'Blackadder ITC, Normal';font-variant-ligatures:normal;font-variant-caps:normal;font-variant-numeric:normal;font-feature-settings:normal;text-align:start;letter-spacing:0px;word-spacing:0px;writing-mode:lr-tb;text-anchor:start;fill:#ff0000;fill-opacity:1;stroke:none;stroke-width:0.252;stroke-miterlimit:4;stroke-dasharray:none;stroke-opacity:0.88970582"
       xml:space="preserve"><tspan
         style="font-style:normal;font-variant:normal;font-weight:normal;font-stretch:normal;font-size:48.31048965px;font-family:'Blackadder ITC';-inkscape-font-specification:'Blackadder ITC, Normal';font-variant-ligatures:normal;font-variant-caps:normal;font-variant-numeric:normal;font-feature-settings:normal;text-align:start;writing-mode:lr-tb;text-anchor:start;fill:#ff0000;stroke:none;stroke-width:0.252;stroke-miterlimit:4;stroke-dasharray:none;stroke-opacity:0.88970582"
         y="230.16061"
         x="60.311317"
         id="tspan6847">oive</tspan></text>
    <flowRoot
       style="font-style:normal;font-weight:normal;font-size:40px;line-height:1.25;font-family:sans-serif;letter-spacing:0px;word-spacing:0px;fill:#000000;fill-opacity:1;stroke:none"
       id="flowRoot6851"
       xml:space="preserve"><flowRegion
         id="flowRegion6853"><rect
           y="909.66254"
           x="111.42857"
           height="48.57143"
           width="40"
           id="rect6855" /></flowRegion><flowPara
         id="flowPara6857" /></flowRoot>  </g>
</svg>
